<svg xmlns="http://www.w3.org/2000/svg" version="1.1" xmlns:xlink="http://www.w3.org/1999/xlink" xmlns:svgjs="http://svgjs.dev/svgjs" viewBox="0 0 7.5933134582602655 6.0092006231712904"><g transform="matrix(1,0,0,1,2.218388209986326,2.2274944529670404)"><rect width="7.5933134582602655" height="7.5933134582602655" x="-2.2183882099863266" y="-3.0195508705115275" fill="#fffcf7"></rect><g><path d=" M -1.1326721455329727 2.0031190350485026 Q -1.1333837566764347 2.000204655255047 -1.1325195760659257 1.9974201998554366 Q -1.1316553954554165 1.994635744455826 -1.1306839355242648 1.9943985407413387 Q -1.0544809436118572 1.9860856577518136 -0.9932789679492964 1.9711418237391072 Q -0.9855072885000823 1.969244194023208 -0.981395567597589 1.9713283608159573 Q -0.9772838466950956 1.9734125276087067 -0.9751490132647089 1.9821556669890725 L -0.8722026011771756 2.4037692771089354 Q -0.8714909900337134 2.406683656902391 -0.877319749620624 2.408106879189315 Q -0.8831485092075345 2.4095301014762396 -0.8838601203509967 2.406615721682784 Q -0.8919250466435684 2.3735860840236245 -0.900459003873882 2.3597144736632094 Q -0.9089929611041956 2.345842863302794 -0.9243837505355768 2.343939287541527 Q -0.939774539966958 2.3420357117802593 -0.9689183379015107 2.3491518232148816 L -1.4187042860247745 2.4589771430225498 Q -1.4478480839593275 2.4660932544571716 -1.4601439025657714 2.47475713608133 Q -1.472439721172215 2.4834210177054885 -1.4739874913617514 2.500268997033597 Q -1.4755352615512876 2.517116976361706 -1.4677075389732033 2.549175154089714 Q -1.466995927829741 2.5520895338831693 -1.4728246874166517 2.5535127561700937 Q -1.4786534470035622 2.554935978457018 -1.4793650581470243 2.552021598663563 L -1.5780418033737844 2.1478942673044314 Q -1.5804138405186583 2.138179667992914 -1.5716707011382924 2.1360448345625276 L -1.4458553175175388 2.1032654318168613 Q -1.4439123976552355 2.1027910243878867 -1.441636317294403 2.107896850294734 Q -1.4393602369335703 2.113002676201581 -1.4420374130125384 2.1146857472761953 Q -1.547090956016141 2.1650420090754015 -1.5198125288500894 2.2767599011578534 L -1.5103243802705935 2.3156182984039235 Q -1.5017850465490468 2.350590855925387 -1.485598011726763 2.362079106604327 Q -1.469410976904479 2.3735673572832674 -1.4392957190387745 2.3662140421341578 L -1.2411178930838158 2.3178244843787272 L -1.2638894496746067 2.2245643309881586 Q -1.289981858268221 2.117703738561465 -1.3618698931734512 2.135256813433533 Q -1.3647842729669064 2.1359684245769954 -1.3660888933965871 2.130625394955661 Q -1.367393513826268 2.125282365334326 -1.3644791340328126 2.124570754190864 L -1.2797249163081224 2.1049054909616114 L -1.234303503258477 2.0927854564495516 Q -1.2036911928905956 2.0832520177236513 -1.1842619942675605 2.078507943433903 Q -1.182319074405257 2.0780335360049285 -1.1808958521183326 2.083862295591839 Q -1.179472629831408 2.0896910551787493 -1.1814155496937118 2.0901654626077244 Q -1.2649611037727628 2.110564982053641 -1.2383942877501735 2.2193684943426377 L -1.2158599348738701 2.3116571878020546 L -0.9953385305024212 2.2578119446134144 Q -0.9632803527744132 2.2499842220353297 -0.9536164201005328 2.2347573246075965 Q -0.9439524874266525 2.2195304271798633 -0.9515430062902495 2.188443709383007 L -0.9631659883001322 2.140842172756571 Q -0.9949512860414443 2.0106665419822356 -1.1297804108127194 2.0065304673441346 Q -1.131723330675023 2.0070048747731093 -1.1326721455329727 2.0031190350485026 M -1.0046040526804672 1.235216375090204 Q -0.9986041490654677 1.2352503840701485 -0.99862115355544 1.2382503358776482 Q -0.9987798621285146 1.266249886080979 -0.9998648685142092 1.2812439769551534 L -1.001199274086164 1.3402373610059901 L -1.0006584113795824 1.4212417279718066 Q -0.9997604543835829 1.439247106980129 -0.9999475037732779 1.4722465768626258 Q -0.9999645082632502 1.4752465286701255 -1.0059644118782496 1.4752125196901809 Q -1.0119643154932492 1.4751785107102364 -1.0119473110032768 1.4721785589027365 Q -1.011726252633637 1.4331791854052405 -1.028725979542802 1.4330828266287308 Q -1.0377258349653014 1.433031813158814 -1.0507766396010503 1.4419579824580997 L -1.2695780168047173 1.582720041741767 L -1.128147114248807 1.683523314517112 Q -1.0793406189459975 1.7178005083383228 -1.051341068742667 1.7179592169113973 Q -1.0333413578976687 1.718061243851231 -1.023262164252799 1.7041181503828067 Q -1.0131829706079294 1.6901750569143823 -1.0130299301981787 1.6631754906468847 Q -1.0130185938715306 1.6611755227752183 -1.0070186902565312 1.661209531755163 Q -1.0010187866415317 1.6612435407351076 -1.00103012296818 1.663243508606774 Q -1.0012115041945508 1.6952429945534375 -1.0023078469068938 1.7122370532992786 L -1.0037159386020618 1.7842302285159475 L -1.0029766901791368 1.8302351577276004 Q -1.0020447242031927 1.8422406331209233 -1.0022034327762674 1.8702401833242541 Q -1.0022204372662395 1.8732401351317538 -1.0082203408812391 1.8732061261518091 Q -1.0142202444962385 1.8731721171718647 -1.0142032400062662 1.8701721653643648 Q -1.0140218587798953 1.8381726794177013 -1.0432861561090259 1.7965061352625613 Q -1.0725504534381565 1.754839591107421 -1.1333000743377237 1.710494539967989 L -1.2886457295454379 1.594612153868608 L -1.5365543359914264 1.7542095311967079 Q -1.578706701706173 1.7809710346045935 -1.5968481166342736 1.8058686060605906 Q -1.6149895315623741 1.830766177516588 -1.615159576462097 1.860765695591585 Q -1.6151765809520695 1.8637656473990847 -1.6211764845670689 1.8637316384191402 Q -1.6271763881820682 1.8636976294391956 -1.627159383692096 1.860697677631696 L -1.6259270050599748 1.8197040044258572 Q -1.6237683286152338 1.7917157905491747 -1.6236946424920204 1.7787159993833428 Q -1.6235019249390015 1.7447165455650127 -1.625207148317815 1.6927060445750362 L -1.625895383270823 1.637701259940884 Q -1.6258840469441749 1.6357012920692175 -1.6198841433291753 1.6357353010491622 Q -1.613884239714176 1.6357693100291066 -1.6138955760408242 1.637769277900773 Q -1.614008939307306 1.6577689566174378 -1.6105656771651304 1.6677886345474047 Q -1.607122415022955 1.6778083124773713 -1.5971225756646228 1.6778649941106123 Q -1.589122704177957 1.677910339417205 -1.5740719316705416 1.6689955064445672 L -1.3632987667701608 1.5331880215334737 L -1.4947695071110074 1.439441317942202 Q -1.544570318186326 1.404158472021834 -1.5745698362613232 1.4039884271221112 Q -1.6125692258229862 1.4037730369157957 -1.6128753066424872 1.4577721694507906 Q -1.6128866429691353 1.459772137322457 -1.6188865465841347 1.4597381283425124 Q -1.6248864501991342 1.4597041193625677 -1.624875113872486 1.4577041514909013 L -1.6235973899337721 1.408710606798397 Q -1.621370695529142 1.3687225856917156 -1.6211893143027711 1.3367230997450519 Q -1.621075951036289 1.3167234210283874 -1.622928546661529 1.290712502370075 L -1.6237018040643987 1.2507074767734214 Q -1.6236847995744261 1.2477075249659215 -1.6176848959594268 1.2477415339458662 Q -1.6116849923444274 1.2477755429258108 -1.6117019968343997 1.2507754947333103 Q -1.611889046224095 1.2837749646158072 -1.581627599040793 1.325947168902188 Q -1.5513661518574913 1.368119373188569 -1.4896165470220908 1.4124700924913252 L -1.3442310540294402 1.5212959094066325 L -1.0822716590118695 1.3527780309425708 Q -1.044130565367104 1.3279938227530552 -1.0274777900161052 1.3010877811804056 Q -1.010825014665106 1.2741817396077557 -1.0106209607854388 1.2381823179177593 Q -1.0106039562954665 1.2351823661102594 -1.0046040526804672 1.235216375090204 M -0.9717625657913199 0.9780947458492206 Q -0.9558526531394436 0.9744376049701092 -0.9446928276748082 0.955106068673196 Q -0.9335330022101728 0.9357745323762827 -0.9220898243545252 0.8912205911301481 Q -0.9213435301465482 0.888314899309748 -0.9155321465057481 0.8898074877257021 Q -0.9097207628649479 0.8913000761416561 -0.910467057072925 0.8942057679620561 Q -0.9206664112486107 0.933916889507524 -0.9273565641165679 0.9559450953945989 L -0.9499676600880346 1.0399613934502092 L -0.9669101571393495 1.1099467618758034 Q -0.9706681231830706 1.1285982414743296 -0.9788773594708177 1.1605608514987307 Q -0.9796236536787947 1.1634665433191307 -0.9854350373195949 1.1619739549031767 Q -0.9912464209603951 1.1604813664872227 -0.990500126752418 1.1575756746668227 Q -0.9820421257286785 1.1246445007022883 -0.9831534743894603 1.1088722179203263 Q -0.9842648230502421 1.0930999351383641 -0.9964565121641513 1.084290127163738 Q -1.0086482012780604 1.0754803191891116 -1.0386736834221948 1.0677686123733492 L -1.4871187877039411 0.952590539608897 Q -1.5161757059079422 0.9451275975291269 -1.5311038071177672 0.9469719928959677 Q -1.546031908327592 0.9488163882628085 -1.5552148634062066 0.9624609232869177 Q -1.5643978184848213 0.9761054583110269 -1.5726070547725683 1.008068068335428 Q -1.5733533489805454 1.010973760155828 -1.5791647326213458 1.009481171739874 Q -1.5849761162621459 1.00798858332392 -1.5842298220541688 1.0050828915035197 L -1.5703254918424339 0.9549663313525774 Q -1.5574427155785044 0.912847047458694 -1.5507260677067114 0.8866958210750933 Q -1.5450044787788875 0.864418850452026 -1.5397009343115404 0.831709946219648 Q -1.5376843214197657 0.8198384142020554 -1.5335532082720562 0.7997340886933291 Q -1.5294220951243467 0.7796297631846029 -1.5224566825165613 0.7525099728608687 Q -1.49782897365332 0.6566221427876658 -1.4428453158481591 0.6113778351416758 Q -1.3878616580429985 0.5661335274956856 -1.3035965952513962 0.587776059527019 Q -1.2425770670229943 0.6034482378945362 -1.2080451075768774 0.6458722143325333 Q -1.1735131481307604 0.6882961907705304 -1.1647673606154396 0.7426814939390967 Q -1.1560215731001187 0.7970667971076628 -1.1692061041077124 0.8484006859347311 Q -1.176171516715498 0.8755204762584652 -1.185740866400019 0.8926793674410374 Q -1.186487160607996 0.8955850592614374 -1.191329980308663 0.8943412355814757 Q -1.194235672129063 0.8935949413734987 -1.1967682168454745 0.8913958012553216 Q -1.1993007615618863 0.8891966611371446 -1.1978346681497682 0.8875082979928702 Q -1.1899801766133573 0.8730063338947057 -1.185253646629503 0.8546036190321719 Q -1.1723178803579013 0.8042382941452371 -1.2050105992879119 0.7586731086527655 Q -1.2377033182179222 0.713107923160294 -1.3151884334285913 0.693206744280907 Q -1.3917049846991267 0.6735543301375124 -1.4430418113266446 0.6985699299067801 Q -1.4943786379541621 0.7235855296760478 -1.510548345793664 0.7865421857847164 Q -1.5165186994574802 0.809787720347917 -1.5147854389567175 0.8231385932795456 Q -1.513052178455955 0.8364894662111744 -1.5012203889441162 0.8446906098477378 Q -1.4893885994322775 0.8528917534843011 -1.46130024516841 0.860105930828079 L -1.0186665245274638 0.9737914151765771 Q -0.9876724784431962 0.9817518867283319 -0.9717625657913199 0.9780947458492206 M -0.5120259009241641 0.010449744633391655 Q -0.5067752070455211 0.013353227678422508 -0.5082269485680365 0.01597857461774399 L -0.5861370769430301 0.15687219369466326 Q -0.5972670952823149 0.17699985356279457 -0.7005838668125003 0.19128777575531314 Q -0.8039006383426858 0.2055756979478317 -0.9787202309842218 0.21174903000170558 Q -0.9838375054983158 0.22720262186726886 -0.9920640407925698 0.2420795878567572 Q -1.0099688529035933 0.27445886677505543 -1.0181026761626106 0.28710168763082433 L -0.8133256148955356 0.4003375263870262 Q -0.7861970298558804 0.41533885545301874 -0.7712838846811019 0.41730051316933464 Q -0.7563707395063234 0.4192621708856505 -0.7444944967411247 0.4081174475700152 Q -0.732618253975926 0.3969727242543799 -0.716165183387418 0.36721879227540316 Q -0.715197355705741 0.3654685609825222 -0.7099466618270981 0.368372044027553 Q -0.7046959679484551 0.3712755270725838 -0.705663795630132 0.3730257583654648 Q -0.7216329523778016 0.40190457469800106 -0.7312185171593345 0.41717274249309144 L -0.7679032570278217 0.48144738648884944 L -0.801869937921751 0.5449396268734032 Q -0.8101891852512415 0.5620507379966111 -0.8261583419989109 0.5909295543291474 Q -0.8276100835214264 0.5935549012684689 -0.8328607774000693 0.590651418223438 Q -0.8381114712787122 0.5877479351784072 -0.8366597297561968 0.5851225882390857 Q -0.8202066591676889 0.555368656260109 -0.8170815728668951 0.539384794536089 Q -0.8139564865661013 0.523400932812069 -0.8237421803944576 0.5111334882412683 Q -0.8335278742228139 0.4988660436704675 -0.8597813436160286 0.48434862844531346 L -1.2649598879179766 0.2602965201371021 Q -1.2912133573111912 0.245779104911948 -1.3061265024859698 0.24381744719563214 Q -1.3210396476607482 0.2418557894793163 -1.3335954051695864 0.2531961136977525 Q -1.3461511626784246 0.26453643791618886 -1.362120319426094 0.29341525424872505 Q -1.3630881471077712 0.29516548554160604 -1.368338840986414 0.2922620024965753 Q -1.373589534865057 0.28935851945154445 -1.37262170718338 0.28760828815866346 L -1.3465830718133391 0.24258618838459634 Q -1.3235406315235654 0.20504892762289162 -1.3104749578209267 0.18142080516899833 Q -1.2959575425957728 0.15516733577578357 -1.2826137327874247 0.12483677792073189 Q -1.2776818823438036 0.1138514763226075 -1.2703304626959901 0.09849059649228065 Q -1.2629790430481767 0.0831297166619539 -1.2533007662314073 0.06562740373314402 Q -1.2102324343967834 -0.012257888800059735 -1.1581257537040006 -0.03829428308153393 Q -1.1060190730112178 -0.06433067736300802 -1.0535121342247884 -0.035295846912699824 Q -1.0123816988420853 -0.012551896393291795 -0.9891764292350617 0.032275723022257674 Q -0.9659711596280383 0.07710334243780714 -0.9649942756583165 0.12906530638942953 Q -0.81504876925806 0.11827896732695631 -0.7256207823710298 0.10430988856945955 Q -0.6361927954839994 0.0903408098119628 -0.5873807996418496 0.06819607992185273 Q -0.5385688037996996 0.046051350031742655 -0.5187283363253224 0.010171608527682396 Q -0.5172765948028071 0.007546261588360914 -0.5120259009241641 0.010449744633391655 M -1.0110384489085513 0.22473104795715249 Q -0.9820036184582431 0.172224109170723 -0.9940178087320132 0.13815565995351253 Q -1.006031999005783 0.104087210736302 -1.0690403255494987 0.06924541419593222 Q -1.1399246929111784 0.030048393088016212 -1.1805565094766926 0.03843322955549766 Q -1.2211883260422067 0.04681806602297911 -1.244900104243292 0.08969873269856332 Q -1.2623210025134768 0.121202895970421 -1.2566022203146292 0.13979175096910623 Q -1.2508834381157816 0.15838060596779147 -1.2167539279046025 0.17725324576049173 L -1.0426059142629445 0.2735521000873472 Q -1.0274915194970593 0.2544849799361293 -1.0110384489085513 0.22473104795715249 M -0.2602028567413245 -0.4658204079910957 Q -0.2581398866532663 -0.46799851598102116 -0.2553316909182551 -0.46878212092859667 Q -0.2525234951832439 -0.4695657258761722 -0.25179745918660207 -0.46887806918015273 Q -0.20349529040201675 -0.40935580031626095 -0.15775502261358132 -0.36603342846703946 Q -0.15194673464044667 -0.36053217489888434 -0.15146857874025843 -0.35594726847289093 Q -0.1509904228400702 -0.3513623620468976 -0.15717933310424465 -0.3448280380771211 L -0.45562233917665945 -0.02972841553456612 Q -0.4576853092647176 -0.027550307544640627 -0.4620415252445686 -0.03167624772075696 Q -0.46639774122441957 -0.0358021878968733 -0.4643347711363614 -0.037980295886798784 Q -0.4409544434717022 -0.06266551977262107 -0.43392594466661083 -0.0773573612006664 Q -0.42689744586151945 -0.09204920262871175 -0.43364285598471936 -0.10601342270252295 Q -0.4403882661079193 -0.11997764277633417 -0.46216934600717424 -0.14060734365691585 L -0.7983240124523423 -0.4589923939138929 Q -0.8201050923515973 -0.47962209479447454 -0.8340517081326896 -0.4852560905572159 Q -0.8479983239137818 -0.4908900863199573 -0.8629940290316221 -0.4830556222017946 Q -0.8779897341494625 -0.4752211580836319 -0.9006824051181024 -0.45126197019445147 Q -0.9027453752061605 -0.44908386220452595 -0.9071015911860114 -0.4532098023806423 Q -0.9114578071658626 -0.45733574255675863 -0.9093948370778043 -0.45951385054668414 L -0.6233296515337385 -0.7615448251496861 Q -0.6164530845735446 -0.7688051851161044 -0.6099187606037682 -0.76261627485193 L -0.5141587676482913 -0.6746729763626931 Q -0.5127066956550075 -0.6732976629706543 -0.5157627714864723 -0.6686168082931048 Q -0.5188188473179371 -0.6639359536155554 -0.521684612003882 -0.6652728877069717 Q -0.6209564763255162 -0.7262408871337781 -0.700036996367746 -0.6427467475199675 L -0.7275432642085216 -0.6137053076542942 Q -0.7522989052652196 -0.5875680117751882 -0.7531752877491665 -0.5677379347773087 Q -0.7540516702331136 -0.5479078577794292 -0.7315445543372168 -0.5265905002028282 L -0.5834332110222831 -0.38630853421487277 L -0.5174181682044218 -0.4560079898924886 Q -0.441775931642289 -0.5358719495230901 -0.49550259539378455 -0.5867585450285249 Q -0.49768070338371007 -0.5888215151165831 -0.4938985915556034 -0.5928147130981132 Q -0.4901164797274968 -0.5968079110796433 -0.48793837173757126 -0.594744940991585 L -0.42546089672575127 -0.5341927724412564 L -0.3906495481875658 -0.5025989437249869 Q -0.3660410829029884 -0.4820460014456502 -0.35152036297015177 -0.46829286752526245 Q -0.3500682909768681 -0.46691755413322367 -0.35419423115298443 -0.46256133815337264 Q -0.35832017132910077 -0.4582051221735216 -0.35977224332238444 -0.4595804355655604 Q -0.422211339033582 -0.5187189114232278 -0.4992288889877535 -0.43740287979934267 L -0.5645562751095955 -0.36842946011836863 L -0.3997461038718997 -0.2123313901219674 Q -0.3757869159827192 -0.18963871915332758 -0.35775273932613305 -0.18977463206309841 Q -0.3397185626695468 -0.18991054497286924 -0.3177135483969264 -0.21314369686540788 L -0.28401837029197635 -0.24871946070085763 Q -0.19187237302537824 -0.3460082842508631 -0.26150141153211837 -0.46154095061248956 Q -0.26295348352540204 -0.46291626400452834 -0.2602028567413245 -0.4658204079910957 M -0.1840795138223805 -0.8945871319830523 Q -0.15278416409257575 -0.8813545553144964 -0.11823938114188456 -0.8793776964703619 Q -0.08369459819119332 -0.8774008376262276 -0.028516882984091302 -0.8797288721027648 Q 0.03165495436854063 -0.8818145349730302 0.06897705599222692 -0.8793024182577409 Q 0.10629915761591319 -0.8767903015424517 0.14205337162009318 -0.8605380345946287 Q 0.17780758562427318 -0.8442857676468057 0.2030307696449763 -0.8070192815251207 Q 0.23161704486843987 -0.7647839305872108 0.23209183328185035 -0.7168045123335212 Q 0.23256662169526077 -0.6688250940798315 0.20501322310779624 -0.6230068637966756 Q 0.1774598245203317 -0.5771886335135197 0.12611488808601 -0.5424366910849954 Q 0.09133283437243728 -0.5188950526656724 0.04831475311371017 -0.5030617117416112 Q 0.005296671854983059 -0.48722837081755 -0.02271888648123932 -0.48758682738356757 Q -0.03353527490833676 -0.4875110553956516 -0.04165011665035512 -0.49771641396367833 L -0.1318172919365104 -0.6202312314386097 L -0.13237780713697048 -0.6210593755746472 Q -0.13461986793881076 -0.6243719521187969 -0.13075940485885354 -0.627588600189116 Q -0.12689894177889635 -0.6308052482594351 -0.12382873684101862 -0.6280531869157453 Q -0.049977218713597116 -0.5778142252398196 0.014926212692378024 -0.557744482049388 Q 0.07982964409835319 -0.5376747388589563 0.13448715707682463 -0.5746687420893208 Q 0.1700973549264348 -0.5987708957091039 0.1809414276607091 -0.634487223719326 Q 0.19178550039498338 -0.6702035517295479 0.16095716436967955 -0.7157514792116074 Q 0.13629449554943646 -0.7521898211972551 0.10164868328152399 -0.7685885312775194 Q 0.06700287101361146 -0.7849872413577839 0.031069428726422738 -0.7872317291374956 Q -0.004864013560766017 -0.7894762169172074 -0.0633795626413231 -0.7885115844478623 Q -0.12050645238538266 -0.7872793230429398 -0.15491742086828522 -0.7899505115553229 Q -0.18932838935118773 -0.7926217000677062 -0.22271935675039145 -0.8080584515441444 Q -0.2561103241495951 -0.8234952030205827 -0.279651962568918 -0.8582772567341554 Q -0.30879875299284165 -0.9013407518081026 -0.3049611202643182 -0.9474088815187927 Q -0.3011234875357948 -0.9934770112294827 -0.27242380121810483 -1.0340334904315314 Q -0.2437241149004148 -1.0745899696335799 -0.20148876396250506 -1.1031762448570435 Q -0.17333186333723188 -1.1222337616726858 -0.1415316139089683 -1.1359083416040847 Q -0.10973136448070464 -1.1495829215354836 -0.08507889734724272 -1.154193329785691 Q -0.07594405452152547 -1.156753534181719 -0.07093730371134277 -1.1547084311709308 Q -0.06593055290116018 -1.1526633281601426 -0.0620069464979397 -1.1468663192078803 L 0.01670755317274214 -1.035920262308168 Q 0.01838909877412237 -1.0334358299000557 0.014675078826606514 -1.0291107800934691 Q 0.010961058879090713 -1.0247857302868826 0.007890853941212972 -1.0275377916305724 Q -0.04286345600760022 -1.0668442799196551 -0.09835178698762809 -1.0890601554380963 Q -0.153840117967656 -1.1112760309565375 -0.20932577508216488 -1.073721512525713 Q -0.24659226120384997 -1.0484983285050098 -0.25396468559688046 -1.0121129281558443 Q -0.261337109989911 -0.9757275278066788 -0.23611392596920783 -0.9384610416849937 Q -0.21537486355218527 -0.9078197086516082 -0.1840795138223805 -0.8945871319830523 M 0.3673822171392516 -1.2056741785926524 Q 0.39523637316425475 -1.1862153504641455 0.4286123940187175 -1.1770889474529656 Q 0.4619884148731802 -1.1679625444417858 0.5164415007160529 -1.1587505174016208 Q 0.5757287826018063 -1.14826156099027 0.6117097988905873 -1.1380333418477955 Q 0.6476908151793682 -1.1278051227053212 0.6792773511159574 -1.1044643697713097 Q 0.7108638870525466 -1.0811236168372984 0.727774654211563 -1.0394219867241539 Q 0.7469401903251148 -0.9921601392625898 0.7374143567331664 -0.9451334607239295 Q 0.727888523141218 -0.898106782185269 0.6913988164876703 -0.8590299180795345 Q 0.6549091098341225 -0.8199530539738001 0.5974535305671231 -0.7966537747769332 Q 0.5585320091281882 -0.7808703920951846 0.51315998737743 -0.7743412541544815 Q 0.46778796562667185 -0.7678121162137785 0.4404610819123032 -0.7739960814838438 Q 0.4298659869351388 -0.7761741454004598 0.4240539513089086 -0.7878454881629458 L 0.3613729204455896 -0.9264495587016988 L 0.36099712561983366 -0.927376261593102 Q 0.35949394631681 -0.931083073158715 0.3639395633609481 -0.9334253987331961 Q 0.3683851804050863 -0.9357677243076773 0.37081506259951313 -0.9324367075678204 Q 0.4325872285535605 -0.8679215968312989 0.49188922720326084 -0.8347776236815551 Q 0.5511912258529612 -0.8016336505318112 0.6123536166855734 -0.8264361090317018 Q 0.6522018410159116 -0.8425952865392063 0.6702450464613408 -0.8752708544341036 Q 0.6882882519067699 -0.9079464223290008 0.6676195364901942 -0.9589150813561775 Q 0.6510845641569338 -0.999690008577919 0.6206126285246258 -1.0229432048919846 Q 0.5901406928923179 -1.0461964012060503 0.555462174320696 -1.0558737122828774 Q 0.5207836557490741 -1.0655510233597045 0.4633497796461272 -1.0767915694225674 Q 0.4072184012603394 -1.0874812074197828 0.3741178344387004 -1.0972588592895423 Q 0.3410172676170613 -1.1070365111593015 0.3115723756690888 -1.1290875505491402 Q 0.28212748372111623 -1.151138589938979 0.2663441010393677 -1.1900601113779141 Q 0.24680277010005985 -1.2382486617308812 0.26014854022354 -1.2825080157683186 Q 0.2734943103470201 -1.326767369805756 0.31000958534654105 -1.3604591298029625 Q 0.34652486034606195 -1.3941508898001689 0.3937867078076259 -1.4133164259137208 Q 0.4252946061153352 -1.426093449989422 0.459245170790458 -1.4328469052710024 Q 0.4931957354655807 -1.439600360552583 0.5182678502254139 -1.438976612630937 Q 0.5277355607253106 -1.4395786573885305 0.5322067461154218 -1.4365358788544837 Q 0.5366779315055331 -1.433493100320437 0.5393084952858246 -1.4270061800806144 L 0.5931967002628392 -1.302101971327045 Q 0.594324084740107 -1.2993218626528353 0.5897909110760231 -1.2958649367740729 Q 0.5852577374119393 -1.2924080108953107 0.5828278552175125 -1.2957390276351677 Q 0.5413703130183372 -1.3447520074956454 0.49172392228141143 -1.378034673957281 Q 0.4420775315444857 -1.411317340418917 0.3799884378204703 -1.3861390870932704 Q 0.33828680770732567 -1.369228319934254 0.32349984655479436 -1.3351754818752386 Q 0.30871288540226305 -1.3011226438162231 0.32562365256127945 -1.2594210137030786 Q 0.33952806111424844 -1.2251330067211597 0.3673822171392516 -1.2056741785926524 M 1.6177947688073027 -1.6330396092088617 Q 1.6665787201484212 -1.6270083496764436 1.6951222009075289 -1.6141526230865364 Q 1.7042362048462572 -1.6115191971420972 1.7069162169087875 -1.6071240253201213 Q 1.7095962289713178 -1.6027288534981452 1.7110404431353228 -1.5917783171894302 L 1.7282900980296878 -1.4623702440022242 Q 1.728411470640229 -1.4593727002261616 1.7234560218836388 -1.4581712312832389 Q 1.7185005731270484 -1.4569697623403162 1.7173395617209728 -1.4609260298382192 Q 1.6852076173449668 -1.5376888994472773 1.6250967547010213 -1.5762885651479115 Q 1.5649858920570758 -1.6148882308485457 1.486050572620766 -1.611692085437629 Q 1.3821357217172694 -1.6074845016055368 1.326137427644543 -1.5321572750473762 Q 1.2701391335718166 -1.4568300484892156 1.2751154106040028 -1.3339307536706573 Q 1.2788375039939308 -1.2420060778714104 1.3144261252384957 -1.1663839909000042 Q 1.3500147464830605 -1.0907619039285983 1.409288258015707 -1.048125055656367 Q 1.468561769548353 -1.005488207384136 1.5395036389151633 -1.0083606925002762 Q 1.6743931088379713 -1.0138224599746268 1.7375389307557907 -1.1845169390134143 Q 1.73837628186709 -1.188554121585011 1.743912236326718 -1.1877774567789823 Q 1.7494481907863462 -1.1870007919729537 1.7495695633968873 -1.1840032481968912 L 1.7397604092329968 -1.05550118403219 Q 1.7382475371577866 -1.0434300938542462 1.7358911853900323 -1.0398318156067226 Q 1.7335348336222784 -1.0362335373591987 1.7247040324414793 -1.0318726944928254 Q 1.6391912767253163 -0.9933815447330714 1.5412715133739445 -0.9894167061220612 Q 1.4193713998140736 -0.9844808866267221 1.336475527323307 -1.0296641171884537 Q 1.2535796548325409 -1.0748473477501854 1.2120768611095452 -1.1482283269831344 Q 1.1705740673865495 -1.221609306216083 1.167297006901939 -1.302542988169768 Q 1.163493998438317 -1.3964660264863897 1.2119984330708875 -1.4714898215181975 Q 1.260502867703458 -1.5465136165500053 1.343814973218011 -1.5899197575295028 Q 1.4271270787325638 -1.633325898509 1.5240476608252482 -1.6372502795831632 Q 1.569010817466184 -1.63907086874128 1.6177947688073027 -1.6330396092088617 M 2.5476601261146996 -0.8391364201335997 Q 2.54617326723884 -0.8333235679349559 2.543266841139518 -0.8340669973728855 Q 2.510327345347203 -0.8424925310027547 2.4902301724645928 -0.848665345768036 L 2.419754947193736 -0.8677242707907642 L 2.337158397900305 -0.887819296165663 Q 2.3194720314917303 -0.8913110640934668 2.290407770498511 -0.8987453584727632 Q 2.287501344399189 -0.8994887879106928 2.288988203275048 -0.9053016401093366 Q 2.290475062150908 -0.9111144923079805 2.2933814882502297 -0.9103710628700508 Q 2.3301962188416407 -0.9009542899896088 2.347905015801014 -0.9015855666735442 Q 2.3656138127603876 -0.9022168433574795 2.3748960023360364 -0.9142933062784558 Q 2.384178191911685 -0.9263697691994323 2.3918602961036246 -0.9564028388924254 L 2.4491043628242064 -1.1801976485402133 L 2.1168029788017333 -1.2651964142768342 L 2.059558912081152 -1.0414016046290462 Q 2.0521246177018555 -1.012337343635827 2.0543442276171726 -0.9968027586132451 Q 2.05656383753249 -0.9812681735906632 2.072278940715319 -0.9720874583705372 Q 2.087994043898147 -0.9629067431504111 2.124808774489558 -0.9534899702699692 Q 2.126746391889106 -0.9529943506446829 2.1252595330132467 -0.9471814984460389 Q 2.1237726741373875 -0.9413686462473951 2.1218350567378397 -0.9418642658726816 Q 2.0888955609455246 -0.9502897995025507 2.070736005462462 -0.9559669946425456 L 1.9905726931938656 -0.9775040177917059 L 1.9196018482977224 -0.9946253254148862 Q 1.9009466731893736 -0.9983649031553332 1.8680071773970586 -1.0067904367852023 Q 1.8660695599975106 -1.0072860564104889 1.8675564188733698 -1.0130989086091327 Q 1.869043277749229 -1.0189117608077765 1.870980895148777 -1.0184161411824901 Q 1.90585800834064 -1.0094949879273345 1.9235668053000137 -1.0101262646112699 Q 1.9412756022593873 -1.0107575412952052 1.9506816967413576 -1.0233184085660685 Q 1.960087791223328 -1.035879275836932 1.9675220856026243 -1.064943536830151 L 2.08225802885643 -1.513501964825501 Q 2.0896923232357265 -1.54256622581872 2.0873488084140877 -1.557616406491415 Q 2.085005293592449 -1.57266658716411 2.069898499665829 -1.5822078018278014 Q 2.0547917057392087 -1.5917490164914927 2.0208834012471195 -1.600422359934005 Q 2.0189457838475717 -1.6009179795592914 2.020432642723431 -1.6067308317579352 Q 2.02191950159929 -1.612543683956579 2.0238571189988384 -1.6120480643312927 L 2.0749561702742154 -1.5979453355614286 Q 2.119025750838532 -1.584608466780293 2.1442147770326554 -1.5781654116515695 Q 2.1781230815247445 -1.5694920682090574 2.2251215187391815 -1.5595348146017312 L 2.2767161896398456 -1.547369703231415 Q 2.2786538070393934 -1.5468740836061285 2.277166948163534 -1.5410612314074847 Q 2.275680089287675 -1.535248379208841 2.2737424718881267 -1.5357439988341275 Q 2.23789654999649 -1.5449129619019262 2.219455538874586 -1.5434367814245384 Q 2.2010145277526822 -1.5419606009471507 2.191124028920825 -1.5295236385826092 Q 2.1812335300889676 -1.5170866762180673 2.173799235709671 -1.488022415224848 L 2.1232460339304566 -1.2903854404709574 L 2.4555474179529297 -1.2053866747343367 L 2.5061006197321443 -1.4030236494882273 Q 2.5135349141114407 -1.4320879104814466 2.511315304196123 -1.4476224955040284 Q 2.509095694280806 -1.4631570805266103 2.4936284009106204 -1.4733066044465102 Q 2.4781611075404353 -1.4834561283664103 2.4423151856487983 -1.492625091434209 Q 2.4394087595494764 -1.4933685208721386 2.4408956184253356 -1.4991813730707824 Q 2.442382477301195 -1.5049942252694262 2.4452889034005167 -1.5042507958314966 L 2.4915439111770246 -1.4913871161248486 Q 2.537551109140889 -1.4775546277184266 2.573397031032526 -1.468385664650628 Q 2.599554865926423 -1.4616947997092613 2.644615685741312 -1.4522331657272216 L 2.698147974041524 -1.439572434731619 Q 2.701054400140846 -1.4388290052936894 2.6995675412649867 -1.4330161530950456 Q 2.6980806823891275 -1.4272033008964018 2.6951742562898056 -1.4279467303343314 Q 2.6602971430979423 -1.4368678835894868 2.642948845582134 -1.435628297649343 Q 2.625600548066326 -1.4343887117091991 2.6163183584906773 -1.4223122487882227 Q 2.6070361689150285 -1.4102357858672463 2.599601874535732 -1.381171524874027 L 2.4848659312819263 -0.9326130968786773 Q 2.47743163690263 -0.9035488358854581 2.4796512468179475 -0.8880142508628762 Q 2.4818708567332646 -0.8724796658402943 2.496617151216319 -0.8635467604328115 Q 2.5113634456993736 -0.8546138550253287 2.5462405588912365 -0.8456927017701732 Q 2.549146984990559 -0.8449492723322436 2.5476601261146996 -0.8391364201335997 M 3.224515675239622 -0.44348036005735325 Q 3.221452214454527 -0.43832136713061015 3.2171530536822406 -0.4408742511181893 Q 3.200816242747554 -0.45057521027099007 3.1657244458553846 -0.47373910007556935 Q 3.1306326489632146 -0.49690298988014864 3.114295838028528 -0.5066039490329495 Q 3.0928000341670985 -0.5193683689708453 3.062544587320523 -0.535008315777469 Q 3.0322891404739467 -0.5506482625840929 3.0159523295392603 -0.5603492217368937 Q 3.0125130009214316 -0.5623915289269571 3.0155764617065266 -0.5675505218537001 Q 3.0186399224916216 -0.5727095147804433 3.0220792511094503 -0.5706672075903799 Q 3.0470143835887087 -0.5558604804624209 3.0619408668577335 -0.5545566026999288 Q 3.0768673501267583 -0.5532527249374367 3.084526002089496 -0.5661502072542944 Q 3.0921846540522333 -0.5790476895711522 3.095948272137031 -0.6186814526893798 L 3.1149027181116224 -0.8621269886472123 L 2.9592730981548727 -0.9545413889975778 L 2.804736236291431 -0.8451048396852043 Q 2.7782411143580124 -0.8259473734191947 2.7659872712176328 -0.8053114017122223 Q 2.7481170833045785 -0.775217276306221 2.760422504810723 -0.7469758775880959 Q 2.772727926316868 -0.7187344788699709 2.811420373267441 -0.6957585229817584 Q 2.8157195340397267 -0.6932056389941793 2.8126560732546317 -0.6880466460674363 Q 2.8095926124695367 -0.6828876531406931 2.805293451697251 -0.6854405371282724 Q 2.7898164729170216 -0.6946309194835573 2.761603333260509 -0.7137101949080099 Q 2.7299508649861677 -0.7348317775225258 2.705875564661367 -0.7491279278529691 Q 2.682660096491023 -0.7629135013858965 2.6506849853355328 -0.7795746017875521 Q 2.6221492027978712 -0.7941933949991443 2.6040927275542702 -0.8049155077469767 Q 2.5997935667819845 -0.8074683917345559 2.6028570275670795 -0.812627384661299 Q 2.6059204883521745 -0.8177863775880421 2.6102196491244603 -0.8152334936004629 Q 2.6342949494492616 -0.8009373432700196 2.6562481051566222 -0.8006945378162479 Q 2.6782012608639825 -0.8004517323624761 2.708229678373413 -0.8157665664092209 Q 2.7382580958828435 -0.8310814004559655 2.78834620040516 -0.8664675811676719 L 3.220329283611116 -1.172852332459044 Q 3.2235806783125778 -1.174410675327384 3.2295995033937777 -1.1708366377447732 Q 3.2356183284749784 -1.1672626001621622 3.2349464302368878 -1.164172526901275 L 3.193380370106077 -0.6143241272080487 Q 3.1867129660909383 -0.5345460241740776 3.1933887365865123 -0.4997619173393402 Q 3.200064507082087 -0.46497781050460296 3.2232799752524306 -0.4511922369716755 Q 3.227579136024717 -0.44863935298409635 3.224515675239622 -0.44348036005735325 M 2.9814956717917975 -0.9704208480863331 L 3.117349152196032 -0.8897497140788319 L 3.1317599853587454 -1.0765793902214522 L 2.9814956717917975 -0.9704208480863331 M 3.667456528031749 -0.7711785176156754 Q 3.6130305164785423 -0.7732543948784752 3.5439735336002363 -0.7352000506357299 Q 3.542542235717124 -0.7338031303195347 3.5387007048475874 -0.7377391994980926 Q 3.53485917397805 -0.7416752686766506 3.537006120802718 -0.7437706491509435 Q 3.5677102701557923 -0.7681479995505278 3.6152149808519742 -0.8075250545657531 Q 3.6627196915481557 -0.8469021095809783 3.6849048087363916 -0.8685543744820055 Q 3.6884830534441715 -0.8720466752724936 3.6923245843137087 -0.8681106060939356 Q 3.696166115183246 -0.8641745369153777 3.6925878704754656 -0.8606822361248896 Q 3.676843593761234 -0.8453161126467412 3.715957362614702 -0.8052397719196057 Q 3.7738779893864316 -0.7415985824714976 3.854200907567661 -0.6592989541925585 Q 3.895410056895422 -0.617075666640755 3.9429397252129785 -0.5712397568142549 L 3.9911506649051747 -0.523274088946545 Q 4.017692150912885 -0.4960794291674173 4.033493448387374 -0.48704787348067574 Q 4.049294745861863 -0.4780163177939341 4.063521780775691 -0.48491497545761886 Q 4.0670828367000125 -0.4869931671484534 4.070575137490501 -0.48341492244067347 Q 4.074067438280989 -0.4798366777328935 4.071204842514765 -0.47704283710050294 Q 4.046924344852236 -0.4575375190241439 3.9997430810599157 -0.41568147588866017 Q 3.9525618172675956 -0.3738254327531764 3.924651508546912 -0.3465854865873682 Q 3.922504561722244 -0.3444901061130753 3.9186630308527066 -0.3484261752916332 Q 3.91482149998317 -0.35236224447019115 3.9162699866497404 -0.3551732738860401 Q 3.964390353568575 -0.41611119547511877 3.964668514085756 -0.46808400208325457 Q 3.9649466746029365 -0.5200568086913904 3.920943684642785 -0.5651426920094178 Q 3.9013868002160508 -0.5851808623729856 3.888379343373953 -0.5913498222935032 Q 3.8753718865318545 -0.5975187822140209 3.863283204050965 -0.5920084504748022 Q 3.8511945215700756 -0.5864981187355837 3.831872000148064 -0.5676396944669473 L 3.501957838090752 -0.24564956158393225 Q 3.479772720902516 -0.22399729668290522 3.473944396669318 -0.2099249608202022 Q 3.46811607243612 -0.19585262495749917 3.4771101105740976 -0.1794786432190031 Q 3.4861041487120756 -0.16310466148050706 3.513344094877884 -0.1351943527598234 Q 3.5154394753521765 -0.1330474059351554 3.5111455817028405 -0.1288566449865695 Q 3.5068516880535046 -0.12466588403798362 3.504756307579212 -0.1268128308626516 Q 3.480310202045794 -0.15186054381711134 3.4670566478253972 -0.1668719828063288 L 3.410498563802946 -0.22625365617201776 L 3.3553030225297737 -0.2813758134552875 Q 3.339919710268167 -0.2957059810698657 3.3140766844185543 -0.3221849919074373 Q 3.312679764102359 -0.32361628979054935 3.316973657751695 -0.3278070507391352 Q 3.321267551401031 -0.3319978116877211 3.3226644717172262 -0.3305665138046091 Q 3.3499044178830344 -0.30265620508392543 3.366404175515621 -0.29290900045562784 Q 3.3829039331482074 -0.2831617958273302 3.397820833828404 -0.2886377499996321 Q 3.4127377345086005 -0.29411370417193405 3.4342072027552804 -0.31506750891486346 L 3.765552662695704 -0.6384545621140737 Q 3.78415953517616 -0.6566145262246125 3.789255021684344 -0.6685742928295642 Q 3.7943505081925273 -0.680534059434516 3.7888487708450382 -0.6933297964652321 Q 3.7833470334975488 -0.7061255334959482 3.764488609228912 -0.7254480549179599 Q 3.7218825395849557 -0.7691026403528755 3.667456528031749 -0.7711785176156754 M 4.201227315157612 -0.14915864943456414 Q 4.149188403214115 -0.1652350807467971 4.072640810550357 -0.14632830795545604 Q 4.0708970193926195 -0.14534892427262486 4.0682037142648335 -0.15014434995640336 Q 4.065510409137048 -0.15493977564018185 4.068126095873654 -0.15640885116442865 Q 4.104088790815201 -0.17201925066416213 4.160158828122711 -0.19777582101687793 Q 4.216228865430222 -0.22353239136959374 4.243257628375154 -0.23871283845347757 Q 4.247617106269499 -0.24116129766055566 4.250310411397285 -0.23636587197677716 Q 4.253003716525071 -0.23157044629299867 4.248644238630726 -0.22912198708592058 Q 4.229462535895612 -0.2183487665747772 4.256885279014886 -0.16952261415812336 Q 4.296383090640022 -0.09307051885115825 4.352697652402817 0.007197472718755815 Q 4.381589471046338 0.0586393118720161 4.415652923737506 0.11520503639452684 L 4.449823864532636 0.1740042439161909 Q 4.468432154506429 0.207136275913206 4.481361239625547 0.2199459893363322 Q 4.4942903247446635 0.23275570275945845 4.509817217634774 0.22976980303256844 Q 4.513794491791665 0.22868293124577482 4.516242950998743 0.23304240914011892 Q 4.518691410205821 0.23740188703446302 4.515203827890346 0.23936065440012544 Q 4.486705989421166 0.2519254147474029 4.430307492428184 0.2801603140199797 Q 4.373908995435201 0.3083952132925565 4.339905067859317 0.3274931951077652 Q 4.3372893811227105 0.32896227063201205 4.3345960759949245 0.3241668449482336 Q 4.3319027708671385 0.31937141926445506 4.33402876576233 0.3170304481613394 Q 4.396267806921072 0.27060522058364944 4.4099733974174065 0.2204713319538335 Q 4.423678987913741 0.17033744332401757 4.392828401904558 0.11540802185528204 Q 4.379117030344921 0.09099494564695515 4.368146712591466 0.08167281453930414 Q 4.357176394838011 0.07235068343165313 4.344074086815781 0.07454830134443852 Q 4.33097177879355 0.07674591925722396 4.307430598164093 0.08996759897544537 L 3.9054867363055674 0.31571553786804074 Q 3.878457973360634 0.33089598495192457 3.869189586304964 0.342983044204956 Q 3.8599211992492943 0.3550701034579874 3.864376174500431 0.3732126830847041 Q 3.868831149751568 0.3913552627114209 3.8879291315667768 0.4253591902873048 Q 3.8893982070910234 0.42797487702391124 3.884166833617811 0.4309130280724049 Q 3.878935460144598 0.43385117912089854 3.8774663846203508 0.4312354923842921 Q 3.8603271701708044 0.40071914712388346 3.851405228921361 0.3827915437050915 L 3.81212239350415 0.3108064143964328 L 3.773054534294864 0.24328825108608065 Q 3.7618991100462673 0.22546813577125108 3.74378051191389 0.19320799935310481 Q 3.7428011282310587 0.1914642081953672 3.7480325017042717 0.18852605714687354 Q 3.7532638751774847 0.18558790609837988 3.7542432588603156 0.1873316972561175 Q 3.7733412406755242 0.22133562483200142 3.786760017636057 0.2350172338339965 Q 3.80017879459659 0.2486988428359916 3.8160042774593896 0.24726563239811258 Q 3.8318297603221887 0.24583242196023358 3.8579866276882533 0.23114166671776537 L 4.261674280704516 0.004414344142338822 Q 4.284343565755105 -0.008317643734466973 4.292357853494453 -0.01855342372579838 Q 4.300372141233801 -0.028789203717129758 4.298365625189742 -0.04257230544950244 Q 4.296359109145683 -0.056355407181875095 4.283137429427462 -0.07989658781133319 Q 4.2532662271011095 -0.13308221812233106 4.201227315157612 -0.14915864943456414 M 4.068097648090451 0.828358273967207 Q 4.056279435435373 0.8373765803292318 4.0562266230140365 0.8536629921761719 Q 4.0561738105927 0.8699494040231122 4.066506922253154 0.9023411746356085 Q 4.067418667399665 0.9051992720425934 4.061702472585695 0.9070227623356149 Q 4.0559862777717255 0.9088462526286362 4.0550745326252144 0.9059881552216511 Q 4.045349251062434 0.8755017828804782 4.040527564270195 0.8570965842540699 L 4.018990549791926 0.7862929331662704 L 3.9961559671400075 0.718002510447468 Q 3.989428882076445 0.7002051419187334 3.9793996854648275 0.6687660704418987 Q 3.978487940318317 0.6659079730349138 3.9842041351322868 0.6640844827418925 Q 3.9899203299462567 0.662260992448871 3.9908320750927673 0.665119089855856 Q 4.001165186753222 0.6975108604683523 4.010639365688502 0.7107581218269236 Q 4.020113544623782 0.7240053831854947 4.035751172383898 0.7253148097913297 Q 4.051388800144013 0.7266242363971646 4.079969774213863 0.7175067849320577 L 4.521069474025209 0.5767941173205745 Q 4.5496504480950595 0.5676766658554676 4.561164745701301 0.557705660357781 Q 4.572679043307542 0.5477346548600945 4.57320820529671 0.531296285488736 Q 4.573737367285878 0.5148579161173774 4.563404255625422 0.4824661455048811 Q 4.562492510478912 0.47960804809789614 4.568208705292882 0.4777845578048747 Q 4.573924900106852 0.47596106751185335 4.574836645253362 0.47881916491883836 L 4.58968752865722 0.5286634350220814 Q 4.60115439253472 0.571190027088868 4.609664013902153 0.5978656028873943 Q 4.619085380416097 0.6273992760929057 4.634363040836243 0.6687102079643448 L 4.65051149241375 0.7160412496985907 Q 4.651423237560261 0.7188993471055757 4.645707042746291 0.7207228373985971 Q 4.639990847932321 0.7225463276916184 4.63907910278581 0.7196882302846335 Q 4.629049906174193 0.6882491588077988 4.618623028103251 0.6753058124980645 Q 4.608196150032309 0.6623624661883303 4.592710479796612 0.6615293891503261 Q 4.5772248095609145 0.660696312112322 4.548643835491065 0.6698137635774289 L 4.109449533951041 0.8099186010912383 Q 4.079915860745531 0.8193399676051821 4.068097648090451 0.828358273967207 M 4.776774694531344 1.640813398196789 Q 4.770797893625221 1.6413405138658423 4.770622188402203 1.6393482468971343 Q 4.7671080839418485 1.5995029075229776 4.736785522184568 1.5800917702951938 Q 4.706462960427286 1.5606806330674097 4.653667885756528 1.5653368214773788 L 4.138666874345554 1.6107566216274543 Q 4.135678473892492 1.6110201794619807 4.134243077350593 1.6061273646517198 Q 4.132807680808695 1.6012345498414593 4.134624242554386 1.5990665776497337 L 4.636314116729619 1.0840003002154235 L 4.230887788597576 1.1197563130995254 Q 4.178092713926818 1.1244125015094943 4.152045881206594 1.1477911778031744 Q 4.125999048486371 1.1711698540968545 4.129513152946724 1.2110151934710112 Q 4.129688858169742 1.213007460439719 4.123712057263618 1.2135345761087721 Q 4.117735256357495 1.2140616917778253 4.117559551134478 1.2120694248091173 Q 4.115187530623738 1.1851738207315616 4.114953727546968 1.171140099339098 L 4.111293672621353 1.1182571720568315 L 4.105114235057977 1.0595731490914593 Q 4.1027124597894815 1.0437228659533053 4.100076881444216 1.0138388614226879 Q 4.099813323609689 1.010850460969626 4.1057901245158135 1.010323345300573 Q 4.111766925421937 1.00979622963152 4.112030483256463 1.0127846300845817 Q 4.115808145551344 1.0556183699118 4.1457644194837115 1.0765676336718695 Q 4.175720693416079 1.0975168974319387 4.228515768086837 1.0928607090219695 L 4.664822234233852 1.0543812651810933 Q 4.692246365642222 1.0238539492739183 4.70222328369552 1.0003867145378489 Q 4.712200201748818 0.9769194798017796 4.710091739072605 0.9530122761772856 Q 4.709916033849588 0.9510200092085778 4.715892834755711 0.9504928935395246 Q 4.721869635661835 0.9499657778704715 4.722045340884852 0.9519580448391793 L 4.7245633118608525 0.9918912368248449 Q 4.7247092623261135 1.0049288247329546 4.726817725002326 1.0288360283574487 L 4.733436425623246 1.0925007187445905 Q 4.735486790445706 1.1043664679453287 4.736980284841357 1.1213007371793453 Q 4.737683105733428 1.1292698050541765 4.734049982242047 1.1336057494376277 Q 4.730416858750667 1.1379416938210787 4.719166077830491 1.1469649930340162 Q 4.697748502086001 1.1659198723327364 4.689486121618887 1.1746796137111475 L 4.298664611784503 1.569541041873956 L 4.65129586524579 1.5384412173998232 Q 4.704090939916547 1.533785028989854 4.730635839378948 1.5103624263904196 Q 4.757180738841349 1.4869398237909852 4.753754486992504 1.4480906179011823 Q 4.753578781769486 1.4460983509324745 4.75955558267561 1.4455712352634214 Q 4.765532383581733 1.4450441195943684 4.76570808880475 1.447036386563076 L 4.7683139123922595 1.4879657120330956 Q 4.769132928991835 1.5200176887554386 4.770977833833521 1.5409364919268709 Q 4.772734886063698 1.560859161613949 4.777714141823706 1.5945519948589646 L 4.78257579021445 1.638294015559028 Q 4.782751495437467 1.640286282527736 4.776774694531344 1.640813398196789 M 4.143005824511279 1.963166255006965 Q 4.200817711016092 1.8920042161185617 4.280591570431725 1.8647758971485127 Q 4.360365429847359 1.8375475781784636 4.4474761725485665 1.855788151251809 Q 4.541438321979082 1.875463376139912 4.605190599583695 1.9393863540134777 Q 4.668942877188308 2.0033093318870434 4.691833733943991 2.096478579372417 Q 4.714724590699673 2.189647826857791 4.6925899627005565 2.295355244967121 Q 4.682957300515756 2.341357547292478 4.665494459211747 2.385720247543826 Q 4.648031617907736 2.4300829477951744 4.628385246930838 2.4555980434727944 Q 4.622830555297225 2.4626084215549993 4.618403090089492 2.4642355514927483 Q 4.61397562488176 2.465862681430497 4.603004178333595 2.464587000968636 L 4.473304364535426 2.4496887359448114 Q 4.470368047365723 2.449073885167058 4.470414026272077 2.443975072958301 Q 4.47046000517843 2.4388762607495442 4.474784995256537 2.437738517006746 Q 4.55434143227666 2.42374661475354 4.607746888207575 2.3736281822480128 Q 4.6611523441384906 2.3235097497424855 4.677753315137827 2.2442291861604877 Q 4.700297843655445 2.136564223271355 4.642407683073322 2.0641627087307324 Q 4.584517522491199 1.9917611941901094 4.462170973753548 1.9661424117837254 Q 4.3662512795432304 1.9460572863771204 4.283507596187799 1.9655119224512312 Q 4.200763912832367 1.984966558525342 4.145662358604173 2.0383057441362724 Q 4.090560804375977 2.091644929747203 4.074369733895143 2.168967948549398 Q 4.065351922488095 2.212033933705051 4.06924206777518 2.2373690233959396 Q 4.073132213062266 2.262704113086828 4.09622336721831 2.27928870231122 Q 4.119314521374354 2.295873291535612 4.169231913259315 2.3063257547574167 Q 4.220128077534178 2.3169831682384725 4.241422613082659 2.315312014213712 Q 4.262717148631141 2.313640860188952 4.273770035675096 2.2950106780107347 Q 4.2848229227190515 2.2763804958325173 4.2952753859408555 2.2264631039475558 Q 4.296505087496362 2.220590469608149 4.304335266615572 2.2222300716821572 Q 4.307271583785275 2.2228449224599105 4.309411089371152 2.22482545669289 Q 4.311550594957028 2.2268059909258695 4.311140694438526 2.2287635357056717 Q 4.289235960971181 2.3089768927712164 4.2789884480086275 2.3579155122662767 Q 4.268740935046074 2.406854131761337 4.26060993821622 2.4603226915937557 Q 4.260200037697717 2.462280236373558 4.2574456813340875 2.463236019310282 Q 4.254691324970458 2.464191802247006 4.252733780190656 2.4637819017285043 Q 4.245882373461347 2.462347249913747 4.246907124757603 2.4574533879642404 Q 4.251984902332525 2.4380828904254677 4.246283711482275 2.428715584361875 Q 4.2405825206320245 2.419348278298282 4.218583131312425 2.412187491360754 Q 4.196583741992824 2.4050267044232267 4.140793715768456 2.3933445396459154 Q 4.096748958222902 2.384121777979617 4.0774349569074 2.383653426418501 Q 4.058120955591898 2.3831850748573853 4.053227093642392 2.3821603235611297 Q 4.047354459302984 2.380930622005623 4.046398676366261 2.3781762656419936 Q 4.045442893429536 2.375421909278364 4.0439412280745906 2.367955651771302 Q 4.042359333822992 2.2388917233847203 4.062649409488848 2.141993256784501 Q 4.085193938006466 2.0343282938953684 4.143005824511279 1.963166255006965" fill="#431a10" fill-rule="nonzero"></path></g><g clip-path="url(#SvgjsClipPath1117)"><path d=" M 0 0.3119497464880907 L 3.138635486137846 0.3119497464880907 L 3.138635486137846 2.8266857396497547 L 0 2.8266857396497547 Z" fill="#3e7742" transform="matrix(1,0,0,1,0,0)" fill-rule="nonzero" mask="url(#maskedMgText-52a16d2c-3bf9-4f16-b971-eba8051b82be)"></path></g><g transform="matrix(-0.6686474968196681,-0.743579535084709,0.743579535084709,-0.6686474968196681,-3.797998416717272,4.4523669445693566)"><g clip-path="url(#SvgjsClipPath1118)"><path d=" M -0.9070640428242379 3.1642986669276163 C -0.8546849492528094 3.1642986669276163 -0.8114512281813807 3.1210649458561877 -0.8114512281813807 3.0687783465704737 C -0.8114512281813807 3.0164916421776162 -0.8547774435385236 2.9732581313204736 -0.9071565371099521 2.9732581313204736 C -0.9594430312885236 2.9732581313204736 -1.002584152967095 3.0164916421776162 -1.002584152967095 3.0687783465704737 C -1.002584152967095 3.1210649458561877 -0.9593506421099521 3.1642986669276163 -0.9070640428242379 3.1642986669276163 Z M -0.9070640428242379 3.145267967641902 C -0.9494660510742379 3.145267967641902 -0.9833692008599522 3.111180670141902 -0.9833692008599522 3.0687783465704737 C -0.9833692008599522 3.026376233213331 -0.9494660510742379 2.992380589141902 -0.9071565371099521 2.992380589141902 C -0.8647542135385236 2.992380589141902 -0.830665864967095 3.026376233213331 -0.8305733706813807 3.0687783465704737 C -0.830481927467095 3.111180670141902 -0.8646617192528093 3.145267967641902 -0.9070640428242379 3.145267967641902 Z M -0.879350442467095 3.088362960499045 C -0.9060476567528093 3.088362960499045 -0.9231380781813807 3.0716425162133305 -0.9231380781813807 3.045036745141902 C -0.9231380781813807 3.0392169626419023 -0.9216602717528093 3.0314569022847593 -0.9199049824670951 3.0273000198919022 C -0.9193500167528093 3.026006676499045 -0.919257522467095 3.0250828898204736 -0.919257522467095 3.024528659856188 C -0.919257522467095 3.0229581489276165 -0.9203664028242379 3.0212953539276164 -0.922399174967095 3.0212953539276164 C -0.9231380781813807 3.0212953539276164 -0.9243384017528093 3.021480132284759 -0.9256322706813808 3.022034362249045 C -0.9443854871099522 3.0294247607847593 -0.9568563445028093 3.049471215499045 -0.9568563445028093 3.0704411415704733 C -0.9568563445028093 3.100095019784759 -0.9344087171099522 3.121342428713331 -0.9048473331813808 3.121342428713331 C -0.8834149356813807 3.121342428713331 -0.8649392021099522 3.1082240062133306 -0.8581030335385236 3.091596056213331 C -0.8575491188956664 3.0902107440704736 -0.8573641303242379 3.0890093694276164 -0.8573641303242379 3.088362960499045 C -0.8573641303242379 3.0863301883561878 -0.8589344310385236 3.085129864784759 -0.8605047317528093 3.085129864784759 C -0.861243634967095 3.085129864784759 -0.862075032467095 3.0853138022847593 -0.8632764071099521 3.0856837794276166 C -0.8669709231813807 3.0870690915704735 -0.8731606828242379 3.088362960499045 -0.879350442467095 3.088362960499045 Z" fill="#431a10" transform="matrix(1,0,0,1,0,0)" fill-rule="nonzero"></path></g></g><g transform="matrix(0.6686474968196681,-0.743579535084709,-0.743579535084709,-0.6686474968196681,3.6251046303857817,8.135003024946773)"><g clip-path="url(#SvgjsClipPath1119)"><path d=" M 4.045514540390655 3.1642986669276163 C 4.097893633962083 3.1642986669276163 4.141127355033512 3.1210649458561877 4.141127355033512 3.0687783465704737 C 4.141127355033512 3.0164916421776162 4.097801139676369 2.9732581313204736 4.045422046104941 2.9732581313204736 C 3.993135551926369 2.9732581313204736 3.9499944302477976 3.0164916421776162 3.9499944302477976 3.0687783465704737 C 3.9499944302477976 3.1210649458561877 3.9932279411049403 3.1642986669276163 4.045514540390655 3.1642986669276163 Z M 4.045514540390655 3.145267967641902 C 4.003112532140655 3.145267967641902 3.9692093823549404 3.111180670141902 3.9692093823549404 3.0687783465704737 C 3.9692093823549404 3.026376233213331 4.003112532140655 2.992380589141902 4.045422046104941 2.992380589141902 C 4.087824369676369 2.992380589141902 4.121912718247797 3.026376233213331 4.122005212533511 3.0687783465704737 C 4.122096655747797 3.111180670141902 4.087916863962083 3.145267967641902 4.045514540390655 3.145267967641902 Z M 4.073228140747798 3.088362960499045 C 4.046530926462083 3.088362960499045 4.029440505033512 3.0716425162133305 4.029440505033512 3.045036745141902 C 4.029440505033512 3.0392169626419023 4.0309183114620835 3.0314569022847593 4.032673600747797 3.0273000198919022 C 4.033228566462083 3.026006676499045 4.033321060747798 3.0250828898204736 4.033321060747798 3.024528659856188 C 4.033321060747798 3.0229581489276165 4.032212180390655 3.0212953539276164 4.030179408247798 3.0212953539276164 C 4.029440505033512 3.0212953539276164 4.028240181462083 3.021480132284759 4.026946312533512 3.022034362249045 C 4.00819309610494 3.0294247607847593 3.995722238712083 3.049471215499045 3.995722238712083 3.0704411415704733 C 3.995722238712083 3.100095019784759 4.01816986610494 3.121342428713331 4.047731250033512 3.121342428713331 C 4.069163647533512 3.121342428713331 4.087639381104941 3.1082240062133306 4.0944755496763685 3.091596056213331 C 4.095029464319226 3.0902107440704736 4.095214452890654 3.0890093694276164 4.095214452890654 3.088362960499045 C 4.095214452890654 3.0863301883561878 4.093644152176369 3.085129864784759 4.092073851462083 3.085129864784759 C 4.091334948247797 3.085129864784759 4.090503550747798 3.0853138022847593 4.08930217610494 3.0856837794276166 C 4.085607660033512 3.0870690915704735 4.079417900390655 3.088362960499045 4.073228140747798 3.088362960499045 Z" fill="#431a10" transform="matrix(1,0,0,1,0,0)" fill-rule="nonzero"></path></g></g></g><defs><clipPath id="SvgjsClipPath1117"><path d=" M 0 0 h 3.138635486137846 v 3.138635486137846 h -3.138635486137846 Z"></path></clipPath><mask id="maskedMgText-52a16d2c-3bf9-4f16-b971-eba8051b82be"><path d=" M 1.5693177430689227 2.776926884381716 C 2.436025139336129 2.776926884381716 3.138635486137846 2.2251241450846715 3.138635486137846 1.544438315434903 C 3.138635486137846 0.863752485785135 2.436025139336129 0.3119497464880907 1.5693177430689227 0.3119497464880907 C 0.7026103468017162 0.3119497464880907 0 0.863752485785135 0 1.544438315434903 C 0 1.8208219632191 0.11583861506399473 2.075954752199593 0.31147512356091855 2.281543031750125 L 0.0757559433434637 2.8266857396497547 L 0.8083900178930645 2.622628501799778 C 1.0487616161654638 2.7257177435255686 1.307775828034336 2.7782397802904484 1.5693177430689222 2.776926884381716 Z" fill="#ffffff" transform="matrix(1,0,0,1,0,0)" fill-rule="nonzero"></path><path d=" M 1.0585424934562682 2.0409167231032903 L 1.226193691243248 1.1309930465647957 L 1.6306042141492456 1.096438982898777 C 1.624631906848946 1.1152090915568613 1.6195127863058323 1.1344057935935385 1.615246852519904 1.1540290890088083 C 1.6109809187339756 1.1702396373953357 1.606928281637344 1.1870900758497522 1.6030889412300084 1.204580404372058 C 1.599249600822673 1.2220707328943639 1.5960501504832267 1.237641391213002 1.5934905902116698 1.2512923793279724 C 1.5849587226398134 1.252145566085158 1.572800811349918 1.2527854561530471 1.5570168563419835 1.2532120495316401 C 1.5412329013340489 1.253638642910233 1.5243824628796323 1.2540652362888256 1.5064655409787338 1.2544918296674186 C 1.488548619077835 1.2549184230460115 1.47041840048764 1.2551317197353078 1.4520748852081486 1.2551317197353078 C 1.4337313699286571 1.2551317197353078 1.4177341182314263 1.2551317197353078 1.4040831301164558 1.2551317197353078 L 1.3592908253642093 1.4842123640396545 C 1.3857396148369645 1.4825059905252833 1.4104820307953483 1.4812262103895049 1.4335180732393606 1.480373023632319 C 1.4522881818974451 1.4795198368751334 1.4714848839341221 1.4790932434965405 1.491108179349392 1.4790932434965405 C 1.510731474764662 1.4790932434965405 1.525235649636818 1.478666650117948 1.5346207039658601 1.477813463360762 C 1.5312079569371175 1.5017026925619603 1.5280085065976714 1.5251653283845656 1.5250223529475215 1.5482013708285782 C 1.5220361992973719 1.5712374132725906 1.5184101555793328 1.594700049095196 1.5141442217934045 1.6185892782963942 C 1.505612354221548 1.61944246505358 1.4917480694172813 1.6200823551214691 1.4725513673806043 1.6205089485000619 C 1.453354665343927 1.6209355418786546 1.4339446666179536 1.6215754319465439 1.4143213712026836 1.6224286187037296 C 1.3921385155158568 1.6232818054609153 1.3678226929360657 1.6241349922181008 1.3413739034633108 1.6249881789752865 L 1.2978613788468425 1.8604677239585257 L 1.4847092786704996 1.8310327808356206 L 1.4719114773127149 1.9769277163143666 L 1.0585424934562682 2.0409167231032903" fill="NA" transform="matrix(1,0,0,1,0,0)" fill-rule="nonzero"></path><path d=" M 2.038498263590844 1.8867032167419844 C 2.013329254253867 1.921257280408003 1.986880464781112 1.9502656301523151 1.9591518951725786 1.9737282659749205 C 1.931423325564045 1.9971909017975258 1.903481459266215 2.0144679336305353 1.8753262962790884 2.0255593614739484 C 1.847171133291962 2.036650789317362 1.8198691570620213 2.0421965032390688 1.7934203675892662 2.0421965032390688 C 1.7669715781165112 2.0421965032390688 1.7428690522260166 2.0362241959387695 1.7211127899177825 2.02427958133817 C 1.6993565276095484 2.012334966737571 1.6803731222621678 1.9944180448366724 1.6641625738756405 1.9705288156354743 C 1.6479520254891131 1.946639586434276 1.634940927442032 1.9172046433113712 1.625129279734397 1.8822239862667596 C 1.615317632026762 1.847243329222148 1.6104118081729446 1.8062903648772368 1.6104118081729446 1.7593650932320262 C 1.6104118081729446 1.679165538056575 1.621503236016358 1.6000324663276064 1.6436860917031848 1.5219658780451195 C 1.6658689473900117 1.4438992897626326 1.697010264027288 1.3737246789841129 1.7371100416150134 1.3114420457095606 C 1.7772098192027388 1.2491594124350083 1.824774980915839 1.1990346904503513 1.8798055267543132 1.16106787975559 C 1.9348360725927876 1.1231010690608287 1.995625629042265 1.104117663713448 2.0621741961027453 1.104117663713448 C 2.082650678275201 1.104117663713448 2.102273973690471 1.108383597499376 2.1210440823485555 1.1169154650712327 C 2.1398141910066397 1.1254473326430892 2.156024739393167 1.1373919472436882 2.169675727508137 1.1527493088730298 C 2.1833267156231075 1.1681066705023717 2.194204846777225 1.186876779160456 2.2023101209704885 1.2090596348472826 C 2.210415395163752 1.2312424905341097 2.214468032260384 1.2559849064924933 2.214468032260384 1.2832868827224342 C 2.214468032260384 1.288406003265548 2.214468032260384 1.2937384204979583 2.214468032260384 1.299284134419665 C 2.214468032260384 1.3048298483413718 2.2140414388817913 1.310588858952375 2.2131882521246053 1.3165611662526744 L 2.0455370543376254 1.361353471004921 C 2.035298813251398 1.34002380207528 2.0233541986507984 1.3293589676104594 2.0097032105358283 1.3293589676104594 C 1.996052222420858 1.3293589676104594 1.9817613442379982 1.3372509451144263 1.9668305759872493 1.353034900122361 C 1.9518998077365004 1.3688188551302956 1.937182336175048 1.389295337302751 1.922678161302892 1.4144643466397278 C 1.9081739864307359 1.4396333559767043 1.894096404937173 1.4677885189638307 1.8804454168222025 1.498929835601107 C 1.866794428707232 1.5300711522383832 1.854849814106633 1.5614257655649557 1.8446115730204051 1.5929936755808247 C 1.8343733319341773 1.6245615855966937 1.8260547610516173 1.6546364187874878 1.8196558603727249 1.6832181751532072 C 1.8132569596938326 1.7117999315189263 1.8100575093543863 1.7350492706522354 1.8100575093543863 1.752966192553134 C 1.8100575093543863 1.7802681687830746 1.8136835530724253 1.7994648708197518 1.8209356405085033 1.8105562986631651 C 1.8281877279445813 1.8216477265065785 1.83778607896292 1.8271934404282852 1.8497306935635192 1.8271934404282852 C 1.8591157478925613 1.8271934404282852 1.8697805823573819 1.8235673967102464 1.881725196957981 1.8163153092741684 C 1.89366981155858 1.8090632218380902 1.9047612394019935 1.799678167509048 1.914999480488221 1.788160146287042 C 1.925237721574449 1.7766421250650355 1.934622775903491 1.7636310270179545 1.9431546434753475 1.7491268521457983 C 1.9516865110472041 1.7346226772736424 1.9576588183475034 1.7201185024014864 1.9610715653762463 1.7056143275293303 L 2.106966500854992 1.7644842137751402 C 2.086490018682537 1.8114094854203509 2.0636672729278205 1.8521491530759655 2.038498263590844 1.8867032167419844" fill="NA" transform="matrix(1,0,0,1,0,0)" fill-rule="nonzero"></path></mask><clipPath id="SvgjsClipPath1118"><path d=" M -1.0541215485385236 2.925261900499045 h 0.29429999999999995 v 0.29429999999999995 h -0.29429999999999995 Z"></path></clipPath><clipPath id="SvgjsClipPath1119"><path d=" M 3.898457034676369 2.925261900499045 h 0.29429999999999995 v 0.29429999999999995 h -0.29429999999999995 Z"></path></clipPath></defs></svg>