<svg xmlns="http://www.w3.org/2000/svg" version="1.1" xmlns:xlink="http://www.w3.org/1999/xlink" xmlns:svgjs="http://svgjs.dev/svgjs" viewBox="0 0 8.184168405961708 6.677784468669773"><g transform="matrix(1,0,0,1,2.4462643674420015,2.4341050853137896)"><g><path d=" M -1.5262689978833115 3.0126501837679704 L -1.7130690130592987 2.4541966773375683 L -1.4736656442164149 2.3741174005166847 L -1.423170781075974 2.525075811044306 L -1.522729242006767 2.5583776379620815 L -1.4624761691183266 2.73850899285547 L -1.3240204490331773 2.6921962196070286 L -1.3706430067180628 2.552814374303918 L -1.2363548501137374 2.507895631019477 L -1.1897322924288516 2.647277476322587 L -1.0271973166767197 2.5929103077265907 L -1.0874503895651602 2.4127789528332024 L -1.2120142313808966 2.4544449595349773 L -1.2625090945213375 2.3034865490073564 L -1.0110660978449624 2.2193800745126953 L -0.8242660826689752 2.7778335809430974 L -0.9511452375296138 2.820274048735983 L -0.9757731002269454 2.7466470939080945 L -1.4110519526685523 2.8922457790369736 L -1.3864240899712206 2.9658727338648623 L -1.5262689978833115 3.0126501837679704 M -1.79077425348688 1.7963571024729226 L -1.8069836663193657 1.4828109686320028 L -1.6728853975693612 1.4758784825838944 L -1.6715745274802645 1.50123524612935 L -1.422527734835414 1.7127806448596168 L -1.200011042508255 1.477345734348366 L -1.2012462854768273 1.453451861007456 L -1.0676356467950046 1.4465445839995228 L -1.0514262339625189 1.7600907178404426 L -1.1850368726443414 1.7669979948483758 L -1.188893855791107 1.6923905944165551 L -1.3039271972992665 1.8127478723344892 L -1.1771212340294108 1.920113836257472 L -1.1805496634932025 1.8537961469847424 L -1.0469390248113797 1.8468888699768091 L -1.030729611978894 2.160435003817729 L -1.1643402506607168 2.167342280825662 L -1.1660796744327875 2.1336958061211155 L -1.4115365933191406 1.925387354586897 L -1.6373406509226975 2.1634368787202813 L -1.6359793627532508 2.1897689024021005 L -1.7700776315032551 2.196701388450209 L -1.786287044335741 1.8831552546092891 L -1.6521887755857363 1.8762227685611808 L -1.6483317924389707 1.9508301689930017 L -1.5291618707189243 1.8253697090316747 L -1.660583385963991 1.7138419558566298 L -1.6566759847368755 1.7894246164248142 L -1.79077425348688 1.7963571024729226 M -1.7724945975135378 1.175595054375827 L -1.6974713860924595 0.8421334801160123 Q -1.6849317921835079 0.7863977598468719 -1.6570409033552953 0.7436250640460254 Q -1.6291500145270825 0.700852368245179 -1.5920053493627895 0.6736747501532647 Q -1.5548606841984967 0.6464971320613504 -1.511987375667228 0.6361234422823715 Q -1.4691140671359593 0.6257497525033926 -1.4271931835147253 0.6351812419391853 Q -1.3766975736982392 0.6465418996686628 -1.3360090530421407 0.6714614520195684 Q -1.2953205323860424 0.6963810043704739 -1.2700007393919335 0.7351096361958755 Q -1.2446809463978246 0.7738382680212771 -1.2366889637839191 0.8261854620946683 Q -1.2286969811700137 0.8785326561680595 -1.2434872714215977 0.9442722236649944 L -1.266101410864237 1.0447870696204529 L -1.128429418062685 1.0757609383357265 L -1.1135319517947853 1.0095449971612775 L -0.9830055641559434 1.0389112256318138 L -1.0503121024022821 1.338073895110619 L -1.180838490041124 1.3087076666400828 L -1.1640118554795391 1.2339169992703813 L -1.6246652016355974 1.1302777914929778 L -1.641491836197182 1.205068458862679 L -1.7724945975135378 1.175595054375827 M -1.589082764218743 0.9721217305583227 L -1.3951986774705367 1.0157423691988638 L -1.3805155632352686 0.950479175379443 Q -1.3682974973752642 0.8961725761428447 -1.3839826408027769 0.8591110909662457 Q -1.3996677842302896 0.8220496057896466 -1.4492106466917478 0.8109033000928008 Q -1.4954188934106079 0.8005072265101656 -1.5283715347017761 0.8246240872961785 Q -1.5613241759929442 0.8487409480821914 -1.574399649983475 0.9068585367389019 L -1.589082764218743 0.9721217305583227 M -1.537960854881119 0.31145956116396856 L -1.3536606438234344 -0.03406209656031112 Q -1.3267739546791089 -0.08446862268716993 -1.2905534092456217 -0.11606149690614098 Q -1.2543328638121345 -0.14765437112511193 -1.2146521527479144 -0.16135300215971937 Q -1.1749714416836943 -0.1750516331943267 -1.1338841779130409 -0.17167471196838258 Q -1.0927969141423872 -0.16829779074243845 -1.0566076133333604 -0.14899452674138414 Q -1.0234340875917525 -0.13129986807375116 -1.0022379496047744 -0.11086281122363106 Q -0.9810418116177964 -0.09042575437351086 -0.9688934101847845 -0.06651373228384672 Q -0.9567450087517726 -0.042601710194182796 -0.9524523809676901 -0.014855633464996965 Q -0.9481597531836077 0.012890443264188867 -0.9496548978670534 0.04474354016611848 Q -0.9267336087588575 0.028746284484773788 -0.8947222410288093 0.024238449871730516 Q -0.8627108732987611 0.019730615258687134 -0.8214947322417567 0.03064717982903331 L -0.7249023664866133 0.053945854435549 L -0.6961772712469492 0.00009272823163997135 L -0.5686242918818896 0.06702230297798462 L -0.669736627125507 0.25658530721574413 L -0.8386216763078035 0.19970653350338796 Q -0.8682626837814607 0.18887670982736138 -0.892547360824785 0.18616123707638488 Q -0.9168320378681094 0.18344576432540838 -0.9366651992716687 0.19002221714741707 Q -0.9564983606752279 0.19659866996942577 -0.9727560447153861 0.21255317223117498 Q -0.9890137287555443 0.22850767449292414 -1.0030315752325003 0.25478800008043173 L -1.0326758735198336 0.31036442632286576 L -0.8905036203415141 0.38619867775557887 L -0.8585613144350076 0.3263140014168321 L -0.7405152617960392 0.3892794101821757 L -0.8848301402801114 0.6598375162306143 L -1.00287619291908 0.5968721074652706 L -0.9667974732980618 0.5292325809531611 L -1.3834052576115012 0.30701524417911985 L -1.4194839772325194 0.37465477069122943 L -1.537960854881119 0.31145956116396856 M -1.3071114046549537 0.16398134098153772 L -1.148998626120277 0.24831822060519138 L -1.1032682744987317 0.16258404368856838 Q -1.0901696310694449 0.13802701813958584 -1.0842373590033356 0.11601157220123126 Q -1.0783050869372262 0.09399612626287657 -1.0805301248916173 0.07482379630672076 Q -1.0827551628460081 0.05565146635056495 -1.0933816998399184 0.04029880277682896 Q -1.1040082368338286 0.024946139203093187 -1.1242570122864983 0.014145503392979486 Q -1.1621696131340502 -0.006076963655744061 -1.1977574866067733 0.009804774617077738 Q -1.2333453600794964 0.025686512889899538 -1.2613810530334084 0.07824716406491472 L -1.3071114046549537 0.16398134098153772 M -1.0462001239308778 -0.5091144717133368 L -0.6418373919235092 -0.9371978111201597 L -0.45832239484778164 -0.7638515984768681 L -0.5676277436325264 -0.6481342115393688 L -0.6439444252017361 -0.7202220949403507 L -0.7743732002853733 -0.5821421454965248 L -0.6682397687077282 -0.4818896936970196 L -0.5673167319463535 -0.5887330478939132 L -0.46437795215532635 -0.4914982284228213 L -0.5653009889167011 -0.38465487422592765 L -0.4407095692385959 -0.2669672134178129 L -0.3102807941549588 -0.4050471628616389 L -0.405765386443877 -0.4952408402331 L -0.2964600376591322 -0.6109582271705994 L -0.10371604653317462 -0.4288944100230031 L -0.5080787785405433 -0.0008110706161802012 L -0.6053381773775827 -0.09268121039231536 L -0.5520266729089495 -0.14912005862256814 L -0.8856903039557269 -0.46429499070128 L -0.9390018084243601 -0.4078561424710272 L -1.0462001239308778 -0.5091144717133368 M -0.01196779573543777 -1.126639519803703 Q -0.02328066196671641 -1.139679545935201 -0.039485524448998055 -1.1472413811059983 Q -0.05569038693127981 -1.1548032162767958 -0.07416024230166574 -1.1559662861269855 Q -0.09263009767205171 -1.157129355977175 -0.11186922919077086 -1.1522770887599991 Q -0.1311083607094901 -1.147424821542823 -0.14834399296698653 -1.136311615244931 Q -0.16393813643805466 -1.1262568095468384 -0.175363617726489 -1.1142420270256381 Q -0.18678909901492344 -1.102227244504438 -0.1924773153576244 -1.088973399586651 Q -0.19816553170032547 -1.0757195546688645 -0.19723632465243277 -1.0612131753828087 Q -0.19630711760454 -1.0467067960967529 -0.18678151220634687 -1.031933397018899 Q -0.17487450545860544 -1.0134666481715815 -0.15986034365109789 -1.0077514878855158 Q -0.14484618184359033 -1.0020363275994502 -0.1278316272979283 -1.0031303048305993 Q -0.11081707275226635 -1.0042242820617484 -0.09298729997830713 -1.0099107656438209 Q -0.07515752720434798 -1.0155972492258933 -0.05761929852370323 -1.019933788114852 L 0.0795762693386198 -1.0549445872632004 Q 0.10825948754421827 -1.0618193518781984 0.1380391026228144 -1.0606863324944418 Q 0.16781871770141055 -1.0595533131106853 0.1960273103750586 -1.0486926087535005 Q 0.22423590304870666 -1.0378319043963158 0.2500527289241925 -1.016714314765803 Q 0.2758695547996783 -0.9955967251352904 0.29730216694561284 -0.9623565772101188 Q 0.3264081834400919 -0.9172156355833426 0.33386672312293886 -0.8691554596191331 Q 0.34132526280578573 -0.8210952836549238 0.32856710220020824 -0.7751052799291289 Q 0.3158089415946307 -0.7291152762033342 0.2834765829389041 -0.6873526618305996 Q 0.25114422428317745 -0.6455900474578649 0.20025807190390243 -0.6127796288640885 Q 0.16455569079908852 -0.5897594158184551 0.12759214263802032 -0.5772551620311824 Q 0.09062859447695215 -0.5647509082439098 0.05457456834595757 -0.563000269921583 Q 0.01852054221496298 -0.5612496315992563 -0.014804230944590928 -0.5696829925269289 Q -0.04812900410414485 -0.5781163534546014 -0.07640806315927301 -0.5976463421854152 L -0.11867639940979985 -0.5703925267405849 L -0.19832104454469254 -0.6939145579193089 L -0.04976630937293805 -0.78969981220114 L -0.03336110007604984 -0.7642567360115026 Q -0.021454093328308416 -0.745789987164185 -0.0054488907794133234 -0.7340325458673891 Q 0.010556311769481783 -0.7222751045705931 0.029865909669681084 -0.7184580874141401 Q 0.0491755075698804 -0.7146410702576869 0.07133318654481291 -0.7199227078080692 Q 0.09349086551974548 -0.7252043453584515 0.11770282511956184 -0.7408157542054902 Q 0.1546363228141969 -0.764629767700973 0.16294290983181148 -0.794096420907807 Q 0.17124949684942603 -0.8235630741146409 0.15166908575314011 -0.8539306166635631 Q 0.14161428005504734 -0.8695247601346312 0.1280958349873108 -0.8756233486739393 Q 0.1145773899195742 -0.8817219372132474 0.09927721018366908 -0.8820238467551759 Q 0.08397703044776389 -0.8823257562971043 0.06766991835694036 -0.8787830178579951 Q 0.05136280626611686 -0.8752402794188858 0.03599526667180003 -0.8711413967365123 L -0.07756037744750188 -0.8409155049469281 Q -0.10952657322595677 -0.8319239391323315 -0.14387969651887683 -0.8306890291382221 Q -0.1782328198117969 -0.8294541191441127 -0.21160353505131477 -0.8393103107882276 Q -0.2449742502908326 -0.8491665024323425 -0.2754429965688879 -0.8716419825627344 Q -0.3059117428469431 -0.8941174626931262 -0.3305195567922754 -0.9322820769775825 Q -0.3590963729868549 -0.9766022742111445 -0.3650401977933315 -1.0218627308224333 Q -0.3709840225998081 -1.067123187433722 -0.35678403314118906 -1.1099759856333176 Q -0.3425840436825699 -1.1528287838329132 -0.30989520071696564 -1.191335364576156 Q -0.27720635775136127 -1.2298419453193987 -0.22878243855172864 -1.2610647630134761 Q -0.19061782426727236 -1.2856725769588087 -0.15250951751139397 -1.297752986577792 Q -0.11440121075551557 -1.3098333961967752 -0.0792273430693814 -1.3115975064907843 Q -0.04405347538324722 -1.3133616167847932 -0.01389837785817405 -1.3057894161653818 Q 0.016256719666899067 -1.2982172155459704 0.03892528768635184 -1.2837844091644632 L 0.07996250734705751 -1.3102444241594442 L 0.1598717526319 -1.1863120207841131 L 0.011317017460145462 -1.090526766502282 L -0.01196779573543777 -1.126639519803703 M 0.6623403620569586 -1.4319018334402291 Q 0.6542830695745674 -1.4471695530384585 0.6402178932157726 -1.4582126383508145 Q 0.6261527168569778 -1.4692557236631703 0.6084290951371725 -1.474581277344492 Q 0.5907054734173671 -1.4799068310258137 0.5708671156037052 -1.479548727690763 Q 0.5510287577900432 -1.4791906243557125 0.5317202944054839 -1.472280225288923 Q 0.5142507322956443 -1.4660279594665897 0.5003960632681171 -1.4569205576503867 Q 0.48654139424058984 -1.4478131558341838 0.47799292356631173 -1.4361966219536701 Q 0.4694444528920336 -1.4245800880731565 0.4670563018601388 -1.4102414967763233 Q 0.46466815082824386 -1.3959029054794903 0.47059135002834906 -1.3793527940070107 Q 0.4779953490284806 -1.3586651546664115 0.4913201254872623 -1.3496908332881152 Q 0.5046449019460439 -1.3407165119098194 0.5214635904547221 -1.3379194474812377 Q 0.5382822789634003 -1.335122383052656 0.5569374488657001 -1.3366128623770754 Q 0.5755926187679999 -1.338103341701495 0.5936574046551679 -1.3383453037663262 L 0.7352189319146551 -1.3412972350041268 Q 0.7647139413016951 -1.3414811273640272 0.7934588731246857 -1.3336174067659292 Q 0.8222038049476761 -1.3257536861678316 0.8472104446351973 -1.3087728860894945 Q 0.8722170843227186 -1.2917920860111574 0.8925659812374106 -1.2653651398303531 Q 0.9129148781521025 -1.2389381936495487 0.9262420763523392 -1.20170044283647 Q 0.944340740574883 -1.1511306577816713 0.9406943964797208 -1.1026320546816741 Q 0.9370480523845585 -1.0541334515816771 0.9141827693433318 -1.0122403741561534 Q 0.8913174863021049 -0.9703472967306299 0.8503487029968516 -0.9370147875245188 Q 0.8093799196915983 -0.9036822783184079 0.75237398017528 -0.8832801477402675 Q 0.7123778774501213 -0.8689657496733465 0.6735407656856987 -0.8651790617762686 Q 0.634703653921276 -0.8613923738791907 0.5991935010145376 -0.8678720787590519 Q 0.5636833481077992 -0.8743517836389132 0.5331430672887871 -0.8901300386174589 Q 0.502602786469775 -0.9059082935960046 0.4794955376430031 -0.9313480399101246 L 0.43214382981896454 -0.9144011088653792 L 0.3826193031736402 -1.052778429788055 L 0.5490398685357951 -1.1123394884113353 L 0.5592409338248653 -1.0838365186531762 Q 0.5666449328249968 -1.063148879312577 0.57956321576819 -1.048065050213891 Q 0.5924814987113831 -1.032981221115205 0.6104204656642956 -1.0248803782144724 Q 0.6283594326172082 -1.0167795353137397 0.651137612961395 -1.0168932585632176 Q 0.673915793305582 -1.0170069818126952 0.7010395871077012 -1.0267144471684233 Q 0.7424148657889 -1.0415224451686864 0.7571938233556269 -1.0683341115162654 Q 0.7719727809223538 -1.0951457778638445 0.7597973158999153 -1.1291654514461635 Q 0.753545050077582 -1.1466350135560028 0.7417639828859544 -1.155643209548961 Q 0.7299829156943267 -1.164651405541919 0.7151507244641514 -1.168418732529854 Q 0.7003185332339762 -1.1721860595177889 0.6836329233028482 -1.1724376973862995 Q 0.6669473133717203 -1.1726893352548102 0.6510504953815004 -1.172186055797075 L 0.5335979323813449 -1.1685276011342802 Q 0.5004251204448652 -1.1670274422854676 0.46668853946462074 -1.173623288435548 Q 0.43295195848437634 -1.1802191345856283 0.40268993236559913 -1.197393502827545 Q 0.37242790624682187 -1.2145678710694616 0.3478567949273548 -1.2433732906181247 Q 0.3232856836078877 -1.2721787101667879 0.3079840856742825 -1.3149331648040266 Q 0.2902144880739667 -1.3645834992214652 0.2947004360320303 -1.410011621094485 Q 0.2991863839900938 -1.4554397429675054 0.3227436748904388 -1.493950209851155 Q 0.3463009657907838 -1.532460676734805 0.3868777730066814 -1.5625412340954938 Q 0.427454580222579 -1.5926217914561829 0.4817021678268174 -1.6120367221676388 Q 0.5244566224640561 -1.6273383201012441 0.5643123888287267 -1.630452357327633 Q 0.6041681551933974 -1.6335663945540222 0.6388241868110018 -1.6272996150261698 Q 0.6734802184286062 -1.6210328354983174 0.7011290687579881 -1.6068128072131587 Q 0.7287779190873702 -1.5925927789279997 0.7475782669727116 -1.5733907791496233 L 0.7935507988407102 -1.5898441102610268 L 0.8432398587971486 -1.4510070640196708 L 0.6768192934349936 -1.3914460053963902 L 0.6623403620569586 -1.4319018334402291 M 1.7856597418552642 -1.5697668418255677 Q 1.7579856616462084 -1.6085960171309388 1.7358750581108109 -1.6247664866472475 Q 1.7137644545754136 -1.6409369561635558 1.6883146922501557 -1.6478014256794484 Q 1.662864929924898 -1.654665895195341 1.635033899784399 -1.654429834144738 Q 1.5940197501036635 -1.6540819547017445 1.5590200679857984 -1.6354738840717071 Q 1.524020385867933 -1.6168658134416698 1.4986536640326296 -1.585155380999234 Q 1.4732869421973258 -1.5534449485567983 1.4589931231729676 -1.5115741606878377 Q 1.4446993041486094 -1.469703372818877 1.445096880654888 -1.4228300588980365 Q 1.445498598583107 -1.3754684812905207 1.4602564689159365 -1.333844108027014 Q 1.4750143392487658 -1.2922197347635074 1.5006691019600735 -1.2611862127571813 Q 1.5263238646713813 -1.2301526907508553 1.5616341534347766 -1.212140984880236 Q 1.596944442198172 -1.1941292790096165 1.6389351192522583 -1.1944854412964911 Q 1.6682309404527835 -1.1947339266129153 1.6935398944320676 -1.204470422443987 Q 1.7188488484113518 -1.2142069182750588 1.7394675295929642 -1.2300073666811393 Q 1.7600862107745767 -1.24580781508722 1.7755387797376634 -1.2662032835863428 Q 1.7909913487007505 -1.2865987520854656 1.7995937310735899 -1.308645163580787 L 1.9571873661577117 -1.2660349696448085 Q 1.9424570512209332 -1.2180567442704648 1.9135070387524316 -1.177038241116643 Q 1.8845570262839297 -1.1360197379628212 1.8435513714982212 -1.1058857029216564 Q 1.8025457167125127 -1.0757516678804917 1.7511788475361698 -1.0582255188321394 Q 1.699811978359827 -1.0406993697837872 1.6402438085854256 -1.040194116307058 Q 1.589952648857857 -1.0397675498471965 1.5439399024960363 -1.0530496394117106 Q 1.4979271561342153 -1.0663317289762246 1.457922453151208 -1.0908956511085282 Q 1.4179177501682005 -1.115459573240832 1.385150032624576 -1.1503391541224255 Q 1.3523823150809515 -1.185218735004019 1.3290715473874215 -1.2277471607569195 Q 1.3057607796938915 -1.2702755865098199 1.29264971093532 -1.3192384100502492 Q 1.2795386421767487 -1.3682012335906786 1.2790872271852447 -1.4214219754382995 Q 1.2784121754089592 -1.5010089563663933 1.3056530529229509 -1.5708225927682438 Q 1.3328939304369425 -1.6406362291700942 1.3807909739811564 -1.6930463125731263 Q 1.4286880175253702 -1.7454563959761589 1.493616522247204 -1.776037492535741 Q 1.5585450269690382 -1.806618589095323 1.633737634717053 -1.8072563680741451 Q 1.6937940681781298 -1.8077657629728145 1.7349345312280475 -1.793221599972208 Q 1.7760749942779652 -1.7786774369716016 1.825762354606819 -1.7351519887867943 L 1.9351334204221133 -1.7360796673014445 L 1.9365332210379695 -1.5710465412051522 L 1.7856597418552642 -1.5697668418255677 M 2.777601051693797 -1.6059409899749724 L 3.0801822584400527 -1.5101471332074854 L 3.039654088269193 -1.3821320072763772 L 2.96517256045473 -1.4057120335576045 L 2.822660776617561 -0.9555642998289443 L 2.8971423044320237 -0.9319842735477167 L 2.8567615094254215 -0.8044346571654489 L 2.554180302679166 -0.900228513932936 L 2.594561097685768 -1.0277781303152038 L 2.66811160640255 -1.0044928543624916 L 2.725293170134527 -1.1851105593125641 L 2.406884638727698 -1.285915171664812 L 2.349703074995721 -1.1052974667147395 L 2.424184602810184 -1.081717440433512 L 2.3838038078035817 -0.954167824051244 L 2.0816881106061667 -1.0498143056544733 L 2.122068905612769 -1.1773639220367411 L 2.1951539047807103 -1.1542260212482867 L 2.3376656886178795 -1.604373754976947 L 2.264580689449938 -1.6275116557654017 L 2.305108859620798 -1.7555267816965099 L 2.6072245568182133 -1.6598803000932802 L 2.566696386647353 -1.5318651741621723 L 2.4922148588328903 -1.5554452004433998 L 2.4457916820917234 -1.408809692558676 L 2.764200213498553 -1.308005080206428 L 2.8106233902397193 -1.454640588091152 L 2.7370728815229373 -1.4779258640438642 L 2.777601051693797 -1.6059409899749724 M 3.3514504856909864 -0.624268305561112 L 3.411820224128534 -0.5819401033422982 L 3.44574344181031 -0.6881581214235216 L 3.2594368317977453 -0.818786877939861 L 3.1711408695629464 -0.7506922737775692 L 3.235108804331209 -0.705841198578826 L 3.158301338053361 -0.5962961102881765 L 2.9284165724799176 -0.7574796617836597 L 3.0052240387577656 -0.8670247500743092 L 3.0504013926878506 -0.8353486782151969 L 3.563675095538672 -1.216127933997079 L 3.7239947320516302 -1.103719926780229 L 3.5373572961112494 -0.4939198682647647 L 3.58133525126443 -0.4630847540656288 L 3.504527784986582 -0.35353966577497925 L 3.274643019413139 -0.5147232172704623 L 3.3514504856909864 -0.624268305561112 M 3.362782719907564 -0.8989903551897016 L 3.4851213951518663 -0.8132126738721054 L 3.561749633393541 -1.0534830327556044 L 3.362782719907564 -0.8989903551897016 M 3.723572078347047 -0.29619336751480035 L 3.772982883919083 -0.23758149287324956 L 4.137720473248988 -0.5450614740444547 L 4.0798122679925894 -0.6137530978281831 L 4.006640755701227 -0.5520682704898451 L 3.9040425224752155 -0.6737719082805811 L 4.0761449059768395 -0.8188571399284067 L 4.5101417268930035 -0.3040432855927471 L 4.3380393433913795 -0.15895805394492157 L 4.234811673151712 -0.28140833982026336 L 4.307983185443074 -0.34309316715860133 L 4.24220701751597 -0.42111789199990146 L 3.877469428186064 -0.11363791082869629 L 3.9278243892785847 -0.05390606406023685 L 3.825533601687598 0.032326806810705044 L 3.6212812907560603 -0.20996049664385846 L 3.723572078347047 -0.29619336751480035 M 4.146792413000804 0.2854391371013288 L 4.179621428510545 0.354714206909562 L 4.610715334259869 0.15042154351454848 L 4.572240564490491 0.06923292666923056 L 4.485757037850913 0.110216920554003 L 4.417589782716036 -0.03362812885672331 L 4.621002567312186 -0.13002415528978495 L 4.909354238572907 0.47844922856724453 L 4.705941453976757 0.5748452550003061 L 4.637355994822648 0.4301177206238699 L 4.723839521462225 0.3891337267390974 L 4.6801372014524425 0.29691404782240477 L 4.249043295703118 0.5012067112174183 L 4.282499617241708 0.5718055084742165 L 4.161599176939442 0.6290994591090514 L 4.0258919726985365 0.34273308773616373 L 4.146792413000804 0.2854391371013288 M 4.969349778270763 0.7076761012171996 L 5.043474251209727 1.015779503417951 L 4.913396697738223 1.047073965028546 L 4.895122559571452 0.9711162695707336 L 4.435578502051687 1.0816748054796972 L 4.453852640218458 1.1576325009375095 L 4.323775086746954 1.1889269625481045 L 4.24965061380799 0.8808235603473531 L 4.379728167279493 0.8495290987367581 L 4.397659665355638 0.9240625874047365 L 4.857203722875402 0.813504051495773 L 4.839272224799259 0.7389705628277946 L 4.969349778270763 0.7076761012171996 M 5.0988370497039925 1.7419029280473723 L 5.10037415183674 2.023148727690733 L 4.966098813465344 2.0238825872159163 L 4.96577057811408 1.9638248904170739 L 4.3598225965907975 1.96713659831072 L 4.358936628000394 1.805029644349616 L 4.835761232522494 1.4943135685422313 L 4.491039818376292 1.4961975860868841 L 4.491378728047922 1.5582083787165835 L 4.357591663634239 1.5589395696616755 L 4.356057230081583 1.2781820439760287 L 4.489844294495265 1.2774508530309368 L 4.490177867006713 1.3384850977452079 L 4.962338784116313 1.3359045807966536 L 4.962010548765049 1.2758468839978108 L 5.096285887136445 1.2751130244726274 L 5.0975080968183875 1.4987424971057164 L 4.614325256525636 1.8075401686234351 L 4.96490595816441 1.8056241281176835 L 4.964561711332596 1.7426367875725557 L 5.0988370497039925 1.7419029280473723 M 4.180659803563987 2.634958295091249 L 4.30195413056941 2.6724387190958825 Q 4.260041456125934 2.6278017402849545 4.244754280506691 2.592925329063584 Q 4.229467104887448 2.558048917842214 4.22574467200736 2.518824608203569 Q 4.222022239127272 2.4796002985649244 4.240508190387213 2.4214298737507964 Q 4.249912346599877 2.392649997403367 4.265147960841648 2.365672064517699 Q 4.28038357508342 2.3386941316320313 4.300174250483041 2.3151679755620274 Q 4.319964925882663 2.2916418194920234 4.344060379013217 2.27072350979725 Q 4.368155832143772 2.249805200102476 4.395636077510898 2.235298947660032 Q 4.4638871993921345 2.1996610137789436 4.541563965967462 2.192233173124521 Q 4.619240732542788 2.1848053324700976 4.700414628307955 2.209888385457814 Q 4.750331909037111 2.22531302149049 4.793235530869502 2.251858001885122 Q 4.836139152701894 2.2784029822797547 4.869950793168255 2.312870790963055 Q 4.903762433634617 2.347338599646355 4.927532034344538 2.3886690729624775 Q 4.95130163505446 2.4299995462786006 4.963345312442533 2.4753725819523633 Q 4.975388989830606 2.520745617626126 4.97490084098336 2.568634535359355 Q 4.974412692136115 2.616523453092584 4.959564678011202 2.6645746672524244 Q 4.942554331732176 2.7196236310471935 4.915317531004969 2.7556696814061388 Q 4.888080730277761 2.7917157317650845 4.833544751343416 2.825970024981022 L 4.8012539245086545 2.930469752862617 L 4.6435712994016045 2.881745201656593 L 4.688115341776342 2.7375915591770714 Q 4.727869175320951 2.726366832492762 4.748636004691571 2.7120858837405644 Q 4.769402834062191 2.697804934988367 4.786047068705783 2.6786726594935195 Q 4.802691303349375 2.6595403839986727 4.814944518889352 2.6198864694007455 Q 4.827053578952388 2.5806990714451477 4.819705140883648 2.5416319650737376 Q 4.812356702814907 2.502564858702328 4.789834541924113 2.468774706717391 Q 4.767312381033319 2.4349845547324542 4.730816839137797 2.4083754512302686 Q 4.6943212972422765 2.3817663477280835 4.65140176614805 2.368504043849521 Q 4.608948751696151 2.355385895447899 4.566802189147806 2.356161095681616 Q 4.524655626599461 2.3569362959153333 4.486170235295192 2.3731525275037746 Q 4.447684843990922 2.389368759092216 4.420833411692737 2.418379032289269 Q 4.393981979394552 2.4473893054863214 4.3820170748084575 2.486110186799591 Q 4.366736594252722 2.5355609508864174 4.384272343398761 2.5813534052007086 Q 4.4018080925448 2.6271458595149997 4.4466799315810235 2.6588985780291754 L 4.488340864416943 2.524075268396224 L 4.616166424414966 2.5635738690780308 L 4.514969279602455 2.8910685519926727 L 4.137557315958658 2.774446771147485 L 4.180659803563987 2.634958295091249" fill="#04a5f4" fill-rule="nonzero"></path></g><g clip-path="url(#SvgjsClipPath1000)"><path d=" M 0 1.6523391326767638 C 0 0.7397774281507474 0.7397774281507469 2.220446049250313e-16 1.6523391326767636 0 C 2.56490083720278 0 3.3046782653535276 0.7397774281507469 3.3046782653535276 1.6523391326767634 C 3.3046782653535276 2.56490083720278 2.5649008372027806 3.3046782653535276 1.652339132676764 3.3046782653535276 C 0.7397774281507474 3.3046782653535276 2.220446049250313e-16 2.5649008372027806 0 1.652339132676764 Z M 0.08095574263277294 1.6523391326767638 C 0.08095574263277328 2.5201902151354734 0.7844880502180547 3.223722522720755 1.652339132676764 3.223722522720755 C 2.5201902151354734 3.223722522720755 3.223722522720755 2.5201902151354734 3.223722522720755 1.6523391326767638 C 3.223722522720755 0.7844880502180543 2.5201902151354734 0.08095574263277294 1.652339132676764 0.08095574263277294 C 0.7844880502180547 0.08095574263277294 0.08095574263277328 0.7844880502180542 0.08095574263277294 1.6523391326767638 Z" fill="#4e888f" transform="matrix(1,0,0,1,0,0)" fill-rule="nonzero"></path><path d=" M 0.9718611495284946 1.2274053483722687 L 0.9718611495284946 2.077272916981259 L 1.5206327795445855 2.077272916981259 L 1.5206327795445855 2.010497608019124 L 1.0823439334476634 2.010497608019124 L 1.0823439334476634 1.6547673257299325 L 1.4587138566887878 1.6547673257299325 L 1.4587138566887878 1.598918885507056 L 1.0823439334476634 1.598918885507056 L 1.0823439334476634 1.2941806573344037 L 1.5206327795445855 1.2941806573344037 L 1.5206327795445855 1.2274053483722687 L 0.9718611495284946 1.2274053483722687 M 2.4178376634584007 1.9206544650518882 C 2.33527909965067 1.9983566427532815 2.237341979839539 2.037207731603978 2.1240263040250067 2.037207731603978 C 2.0608932846426247 2.037207731603978 2.005044844419748 2.02628086286472 1.9564809833563772 2.0044271253862025 C 1.9079171222930063 1.982573387907686 1.8674472380735305 1.9534350712696633 1.83507133069795 1.9170121754721352 C 1.8026954233223693 1.880589279674607 1.7782111433695866 1.8385006000863524 1.7616184908396015 1.790746136707371 C 1.7450258383096164 1.7429916733283897 1.736729512044624 1.6932137157384344 1.736729512044624 1.6414122639375055 C 1.736729512044624 1.5863732213990185 1.7454305371518113 1.5359882155457711 1.7628325873661859 1.4902572463777637 C 1.7802346375805604 1.444526277209756 1.8047189175333433 1.4050681400957672 1.8362854272245341 1.3718828350357972 C 1.8678519369157254 1.338697529975827 1.9052865798187404 1.3127968040753626 1.9485893559335794 1.2941806573344037 C 1.9918921320484184 1.2755645105934448 2.0390395471641076 1.2662564372229654 2.0900316012806472 1.2662564372229654 C 2.1248357017093964 1.2662564372229654 2.156604560821685 1.2703034256449128 2.1853381786175126 1.278397402488808 C 2.2140717964133403 1.2864913793327033 2.23956782347161 1.297013549229767 2.261826259792322 1.3099639121799993 C 2.2840846961130334 1.3229142751302314 2.3022961440117973 1.3376857828703401 2.316460603488614 1.3542784354003252 C 2.33062506296543 1.3708710879303103 2.340540184599202 1.3876660898813924 2.3462059683899286 1.4046634412535726 L 2.436049111357165 1.4046634412535726 C 2.423908146091322 1.377143919984329 2.408327240666824 1.3516478929260591 2.38930639508367 1.3281753600787634 C 2.3702855495005166 1.3047028272314674 2.346610667232123 1.2844678851217295 2.3182817482784905 1.2674705337495498 C 2.289952829324857 1.25047318237737 2.2567675242648875 1.2371181205849429 2.21872583309858 1.2274053483722687 C 2.180684141932273 1.2176925761595945 2.1373813658174337 1.2128361900532574 2.088817504754063 1.2128361900532574 C 2.018399906212175 1.2128361900532574 1.954255139724306 1.2229536611081264 1.8963832052904557 1.243188603217864 C 1.8385112708566054 1.2634235453276021 1.7889356626877477 1.2923595125445273 1.7476563807838823 1.3299965048686397 C 1.7063770988800169 1.367633497192752 1.6744058903466312 1.412959767518565 1.651742755183725 1.465975315846078 C 1.6290796200208184 1.5189908641735914 1.6177480524393653 1.5782792445551235 1.6177480524393653 1.6438404569906742 C 1.6177480524393653 1.7004982948979401 1.6268537763887472 1.7557396868575244 1.6450652242875115 1.809564632869427 C 1.6632766721862753 1.86338957888133 1.691403241718811 1.9111440422603112 1.7294449328851182 1.9528280230063713 C 1.7674866240514255 1.9945120037524313 1.8160504851147965 2.028102007654596 1.875136516075231 2.053598034712866 C 1.9342225470356653 2.0790940617711353 2.0046401455775533 2.0918420753002707 2.0863893117008945 2.0918420753002707 C 2.1381907635018234 2.0918420753002707 2.184528780933123 2.0869856891939333 2.2254033639947934 2.077272916981259 C 2.266277947056464 2.067560144768585 2.301891445169603 2.0556215289238398 2.332243858334209 2.041457069447023 C 2.3625962714988162 2.027292609970207 2.3878899491359884 2.0121164033879033 2.4081248912457265 1.995928449700113 C 2.4283598333554646 1.9797404960123226 2.4437383893588653 1.9655760365355062 2.454260559255929 1.9534350712696635 L 2.4178376634584007 1.9206544650518882" fill="#3cc3f7" transform="matrix(1,0,0,1,0,0)" fill-rule="nonzero"></path></g><g transform="matrix(-0.7293092395339685,-0.684184209939388,0.684184209939388,-0.7293092395339685,-3.8387234781506754,5.3947694524610315)"><g clip-path="url(#SvgjsClipPath1001)"><path d=" M -0.9337697144978047 3.5547864211425413 L -0.7706704330373386 3.5547864211425413 C -0.7545580334717406 3.5547864211425413 -0.7441629751305499 3.5428325180074385 -0.7441629751305499 3.528174882551485 C -0.7441629751305499 3.5238094074875033 -0.7453054971873925 3.5193398517392547 -0.7475929067711748 3.5151813553087585 L -0.8292986093910563 3.3692336244274954 C -0.8342885685606414 3.360189840879206 -0.8432276800571392 3.35561596789968 -0.8521679742886856 3.35561596789968 C -0.8611082685202319 3.35561596789968 -0.870151460700997 3.360189840879206 -0.8751414198705821 3.3692336244274954 L -0.9567430418061964 3.5151813553087585 C -0.9590299782959593 3.5194427496884733 -0.9602772906780983 3.5238094074875033 -0.9602772906780983 3.528174882551485 C -0.9602772906780983 3.5428325180074385 -0.9498822323369076 3.5547864211425413 -0.9337697144978047 3.5547864211425413 Z" fill="#04a5f4" transform="matrix(1,0,0,1,0,0)" fill-rule="nonzero"></path></g></g><g transform="matrix(0.7293092395339685,-0.684184209939388,-0.684184209939388,-0.7293092395339685,3.4902813963274197,8.821857884994508)"><g clip-path="url(#SvgjsClipPath1002)"><path d=" M 4.0752444994330945 3.5547864211425413 L 4.238343780893561 3.5547864211425413 C 4.254456180459158 3.5547864211425413 4.264851238800349 3.5428325180074385 4.264851238800349 3.528174882551485 C 4.264851238800349 3.5238094074875033 4.263708716743507 3.5193398517392547 4.261421307159725 3.5151813553087585 L 4.179715604539843 3.3692336244274954 C 4.174725645370257 3.360189840879206 4.16578653387376 3.35561596789968 4.1568462396422134 3.35561596789968 C 4.147905945410667 3.35561596789968 4.138862753229902 3.360189840879206 4.133872794060317 3.3692336244274954 L 4.052271172124703 3.5151813553087585 C 4.049984235634939 3.5194427496884733 4.048736923252801 3.5238094074875033 4.048736923252801 3.528174882551485 C 4.048736923252801 3.5428325180074385 4.059131981593992 3.5547864211425413 4.0752444994330945 3.5547864211425413 Z" fill="#04a5f4" transform="matrix(1,0,0,1,0,0)" fill-rule="nonzero"></path></g></g></g><defs><clipPath id="SvgjsClipPath1000"><path d=" M 0 0 h 3.3046782653535276 v 3.3046782653535276 h -3.3046782653535276 Z"></path></clipPath><clipPath id="SvgjsClipPath1001"><path d=" M -1.0177508810774787 3.2852647582923256 h 0.33116581357758623 v 0.3429931640625 h -0.33116581357758623 Z"></path></clipPath><clipPath id="SvgjsClipPath1002"><path d=" M 3.9912633328534204 3.2852647582923256 h 0.33116581357758623 v 0.3429931640625 h -0.33116581357758623 Z"></path></clipPath></defs></svg>